<ttFont>
          <CharString index="0">
            -36 callsubr
            62 72 58 -37 61 -47 callgsubr
            -40 -30 callgsubr
            -486 hmoveto
            1 hlineto
            83 41 62 72 58 -39 61 -69 -60 callgsubr
            -39 -30 callgsubr
            return
          </CharString>
          <CharString index="1">
            579 88 hlineto
            -233 15 rlineto
            911 297 121 -297 154 vlineto
            188 65 63 141 97 66 -23 -14 19 vhcurveto
            169 vlineto
            8 -24 -28 8 -62 hhcurveto
            -222 -218 -201 -253 hvcurveto
            -99 vlineto
            -208 -40 rlineto
            -81 208 -910 vlineto
            -180 -16 rlineto
            return
          </CharString>
          <CharString index="2">
            -10 callgsubr
            12 97 rmoveto
            -302 -170 284 392 464 194 228 284 300 169 -275 -393 -464 -194 -236 -281 hvcurveto
            return
          </CharString>
          <CharString index="3">
            rmoveto
            -322 138 -277 368 261 265 219 373 322 -139 277 -368 -261 -264 -220 -372 vhcurveto
            515 -492 rmoveto
            -238 -91 230 273 314 123 160 208 240 88 -233 -270 -313 -122 -161 -208 hvcurveto
            return
          </CharString>
          <CharString index="4">
            rmoveto
            -6 64 157 -88 232 hhcurveto
            338 192 219 212 246 -237 103 -202 96 hvcurveto
            -215 102 -147 63 176 vvcurveto
            166 110 81 202 116 101 -34 -24 28 vhcurveto
            38 -255 rlineto
            101 hlineto
            13 337 rlineto
            10 -60 -144 63 -184 hhcurveto
            -283 -199 -155 -231 -264 248 -110 169 -73 hvcurveto
            207 -89 161 -74 -180 vvcurveto
            -173 -117 -112 -226 -141 -121 45 46 -48 vhcurveto
            -31 269 rlineto
            -105 hlineto
            return
          </CharString>
          <CharString index="5">
            -75 vlineto
            -81 27 -6 59 62 85 20 12 45 vhcurveto
            76 -128 675 vlineto
            287 -95 109 -278 -188 -216 -117 -36 -38 vhcurveto
            45 -90 rlineto
            1 hlineto
            38 65 136 72 159 hhcurveto
            193 53 -78 -203 hvcurveto
            -64 vlineto
            return
          </CharString>
          <CharString index="6">
            524 88 hlineto
            -179 15 rlineto
            1026 40 callsubr
            -281 -32 rlineto
            -92 vlineto
            161 72 callsubr
            -180 -16 rlineto
            return
          </CharString>
          <CharString index="7">
            rmoveto
            -44 19 -18 21 -15 vhcurveto
            21 -14 22 -18 -42 vvcurveto
            -63 -29 -63 -40 -21 vhcurveto
            -13 vlineto
            54 -38 rlineto
            2 hlineto
            22 8 132 100 166 vvcurveto
            106 -50 59 -74 vhcurveto
            -9 hlineto
            -25 -66 -15 -75 hvcurveto
            return
          </CharString>
          <CharString index="8">
            -338 -6 -349 -91 -286 vvcurveto
            182 20 rmoveto
            156 164 109 341 2 vhcurveto
            -363 vlineto
            -64 -82 -120 -60 -82 hhcurveto
            -124 -97 57 163 hvcurveto
            return
          </CharString>
          <CharString index="9">
            rmoveto
            -475 251 -316 447 245 76 74 5 108 vhcurveto
            50 273 -100 15 -82 -193 rlineto
            -43 -54 -69 -33 -170 hhcurveto
            -350 -159 341 370 421 217 232 278 162 107 -29 -34 37 hvcurveto
            44 -237 rlineto
            106 hlineto
            17 334 rlineto
            16 -71 -178 49 -183 hhcurveto
            -412 -317 -314 -456 hvcurveto
            return
          </CharString>
          <CharString index="10">
            -199 20 -3 callgsubr
            199 22 rlineto
            88 -569 -88 vlineto
            200 -86 callsubr
            return
          </CharString>
          <CharString index="11">
            rmoveto
            1 hlineto
            93 39 235 128 69 89 -114 106 rcurveline
            -1 hlineto
            -339 -309 rlineto
            return
          </CharString>
          <CharString index="12">
            -107 callgsubr
            endchar
          </CharString>
          <CharString index="13">
            rmoveto
            200 124 163 176 15 -2 15 -1 15 hvcurveto
            -90 hlineto
            1 -7 -1 -12 -2 -15 rrcurveto
            -84 -7 -54 -124 -167 hhcurveto
            -168 -57 125 83 -8 hvcurveto
            -3 15 0 12 7 vvcurveto
            -92 hlineto
            -3 -15 0 -16 -15 vvcurveto
            -176 120 -162 210 vhcurveto
            endchar
          </CharString>
          <CharString index="14">
            -136 57 -135 38 156 vvcurveto
            100 94 64 134 -2 vhcurveto
            92 83 -28 -36 19 hvcurveto
            36 -148 rlineto
            101 243 hlineto
            16 -43 -110 47 -163 hhcurveto
            -213 -183 -110 -181 -186 102 -98 214 -77 hvcurveto
            return
          </CharString>
          <CharString index="15">
            rmoveto
            203 121 131 169 14 0 12 -2 14 hvcurveto
            -90 hlineto
            -6 0 -9 -2 -12 vhcurveto
            -74 -6 -53 -104 -169 hhcurveto
            -170 -56 103 74 -8 hvcurveto
            -3 12 0 10 6 vvcurveto
            -93 hlineto
            -2 -14 0 -13 -14 vvcurveto
            -169 118 -130 212 vhcurveto
            return
          </CharString>
          <CharString index="16">
            354 -89 callgsubr
            return
          </CharString>
          <CharString index="17">
            rmoveto
            272 217 266 -217 75 45 -265 296 rlineto
            -154 hlineto
            -262 -298 rlineto
            endchar
          </CharString>
          <CharString index="18">
            -36 callsubr
            60 73 58 -38 61 -47 callgsubr
            -39 -67 -69 -65 39 -51 64 hvcurveto
            return
          </CharString>
          <CharString index="19">
            180 72 49 110 99 vvcurveto
            127 -115 100 -187 -154 -133 -41 -67 -67 vhcurveto
            50 -81 rlineto
            46 58 102 32 102 hhcurveto
            135 54 -57 -88 1 hvcurveto
            1 -94 -81 -65 -86 -43 -60 -29 -56 -17 -30 -8 31 -91 rcurveline
            28 11 69 22 24 11 rrcurveto
            return
          </CharString>
          <CharString index="20">
            -19 callgsubr
            hstemhm
            322 65 callsubr
            hintmask 01110000
            122 hmoveto
            569 hlineto
            hintmask 10110000
            87 vlineto
            hintmask 01110000
            -97 callsubr
            hintmask 10110000
            -200 -19 rlineto
            return
          </CharString>
          <CharString index="21">
            -23 rlineto
            -1304 vlineto
            return
          </CharString>
          <CharString index="22">
            rmoveto
            246 125 152 213 11 -1 13 -1 11 107 callgsubr
            -5 -35 -35 -108 -48 -124 -167 -169 -55 124 108 35 -4 35 -26 hvcurveto
            -122 hlineto
            -1 -11 -1 -13 -11 vvcurveto
            -211 133 -154 244 vhcurveto
            return
          </CharString>
          <CharString index="23">
            210 hlineto
            142 287 707 165 hhcurveto
            152 -600 hlineto
            -172 -19 rlineto
            -88 513 87 vlineto
            -180 21 rlineto
            599 152 vlineto
            165 289 -707 141 hhcurveto
            211 88 hlineto
            -80 20 -113 32 -267 559 -189 86 rlinecurve
            464 627 158 22 rlineto
            88 -474 -88 vlineto
            167 -24 -431 -613 rlineto
            -193 614 hlineto
            177 75 callsubr
            -614 -192 vlineto
            -433 614 168 -32 callgsubr
            -473 -88 vlineto
            157 -22 464 -626 -189 -86 -268 -560 -111 -32 rlinecurve
            -79 -20 rlineto
            endchar
          </CharString>
          <CharString index="24">
            -1 hlineto
            -52 -38 -32 -65 hvcurveto
            -101 138 -23 -187 vvcurveto
            -194 -98 -115 -46 -32 vhcurveto
            -19 vlineto
            48 -48 rlineto
            2 hlineto
            78 41 158 183 255 vvcurveto
            176 -93 161 -96 vhcurveto
            return
          </CharString>
          <CharString index="25">
            rmoveto
            246 132 98 211 11 -1 15 -1 10 107 callgsubr
            -4 -34 -35 -106 -41 -86 -182 -183 -41 86 106 35 -3 34 -27 hvcurveto
            -121 hlineto
            -1 -10 -1 -15 -11 vvcurveto
            -210 132 -99 244 vhcurveto
            return
          </CharString>
          <CharString index="26">
            rmoveto
            155 hlineto
            246 277 -68 42 -256 -204 -251 204 -74 -44 rlineto
            return
          </CharString>
          <CharString index="27">
            -106 callgsubr
            endchar
          </CharString>
          <CharString index="28">
            1065 hlineto
            75 426 -98 17 -115 -321 -583 -15 -3 callgsubr
            204 22 rlineto
            88 -544 -80 callgsubr
            return
          </CharString>
          <CharString index="29">
            rmoveto
            154 hlineto
            278 400 -65 42 -290 -310 -284 310 -72 -43 rlineto
            return
          </CharString>
          <CharString index="30">
            -246 -59 callsubr
            hintmask 1111000010100000
            -65 callsubr
            hintmask 1110100100100000
            -67 callsubr
            hintmask 1110100010100000
            -84 -46 -69 -93 -105 vvcurveto
            -83 35 -54 61 -33 vhcurveto
            hintmask 1110101000010000
            -89 -49 -100 -105 -133 vvcurveto
            hintmask 1110100100100000
            -64 callsubr
            hintmask 1110101000010000
            -73 callsubr
            hintmask 0000010001000000
            return
          </CharString>
          <CharString index="31">
            -59 callsubr
            hintmask 1110100100001000
            -65 callsubr
            hintmask 1111000001010000
            -67 callsubr
            hintmask 1110100010010000
            -84 -46 -69 -93 -105 vvcurveto
            -83 35 -54 61 -33 vhcurveto
            hintmask 1110100001010000
            -89 -49 -100 -105 -133 vvcurveto
            hintmask 1110100100001000
            -64 callsubr
            hintmask 1110100010010000
            -73 callsubr
            endchar
          </CharString>
          <CharString index="32">
            22 callsubr
            662 363 121 -363 292 -95 vlineto
            -7 -37 -38 -152 -17 -47 -11 -32 -13 -19 -21 -13 -17 -10 -66 -14 -36 -8 rrcurveto
            -81 155 vlineto
            return
          </CharString>
          <CharString index="33">
            208 651 -102 callgsubr
            return
          </CharString>
          <CharString index="34">
            -331 -721 rmoveto
            97 44 75 56 54 vhcurveto
            -10 43 50 -4 55 hhcurveto
            254 hlineto
            223 35 -69 -114 -166 -217 -98 -215 hvcurveto
            -2 hlineto
            -252 -74 87 148 hvcurveto
            return
          </CharString>
          <CharString index="35">
            -181 19 rlineto
            1304 vlineto
            169 -32 callgsubr
            -521 -88 vlineto
            187 -23 rlineto
            -60 vlineto
            -631 -746 -189 -270 rlineto
            1077 vlineto
            208 22 rlineto
            88 -540 -88 vlineto
            168 -86 callsubr
            return
          </CharString>
          <CharString index="36">
            rmoveto
            1 hlineto
            55 53 -338 309 rlineto
            -1 hlineto
            -115 -106 69 -89 235 -128 94 -39 rlinecurve
            return
          </CharString>
          <CharString index="37">
            -12 97 -85 85 653 105 568 4 callgsubr
            -78 94 -22 callsubr
            571 169 -74 183 -38 callgsubr
            hintmask 0110011010000000
            103 hmoveto
            252 hlineto
            156 69 -12 99 hhcurveto
            hintmask 1010011010000000
            475 142 227 240 216 -152 149 -259 -10 hvcurveto
            hintmask 1010011100000000
            199 40 103 159 185 vvcurveto
            216 -139 128 -367 vhcurveto
            hintmask 1010101010000000
            -101 -95 -16 -122 hhcurveto
            -256 -88 hlineto
            hintmask 0111001010000000
            171 39 callsubr
            758 rmoveto
            hintmask 1010011100000000
            585 vlineto
            1 40 73 12 100 hhcurveto
            271 87 -98 -190 -201 -112 -112 -207 hvcurveto
            hintmask 0111001010000000
            -54 -136 -1 4 -62 hvcurveto
            hintmask 1010011010000000
            -743 vmoveto
            633 vlineto
            3 61 158 -1 74 hhcurveto
            264 109 -96 -219 -207 -117 -131 -318 -70 -109 2 16 -52 hvcurveto
            endchar
          </CharString>
          <CharString index="38">
            -96 callsubr
            endchar
          </CharString>
          <CharString index="39">
            204 -74 104 -57 -119 vvcurveto
            -111 -68 -75 -183 -111 -108 46 43 -28 vhcurveto
            -31 159 rlineto
            -110 hlineto
            return
          </CharString>
          <CharString index="40">
            152 -67 vlineto
            -112 -93 -59 -26 -29 hvcurveto
            58 -78 -108 27 -119 hhcurveto
            -1 hlineto
            -224 -231 -141 -250 -152 79 -111 124 -59 hvcurveto
            return
          </CharString>
          <CharString index="41">
            -73 vlineto
            -79 29 -9 57 78 64 19 13 53 vhcurveto
            79 -125 1556 vlineto
            -38 29 rlineto
            -5 hlineto
            -335 -34 rlineto
            -75 vlineto
            213 -19 rlineto
            -406 vlineto
            return
          </CharString>
          <CharString index="42">
            -165 -61 33 107 50 31 54 49 39 hvcurveto
            -13 47 52 -6 54 hhcurveto
            1 hlineto
            247 207 162 248 81 -22 66 -37 52 hvcurveto
            233 hlineto
            return
          </CharString>
          <CharString index="43">
            496 754 rmoveto
            -197 -83 128 162 207 121 62 150 hvcurveto
            1 hlineto
            172 97 -82 -190 -186 -82 -101 -178 hvcurveto
            return
          </CharString>
          <CharString index="44">
            rmoveto
            634 83 hlineto
            -226 21 rlineto
            908 vlineto
            -86 15 rlineto
            -3 hlineto
            -115 -88 -121 -41 -109 -32 20 -92 rcurveline
            86 18 99 23 84 35 rrcurveto
            -747 vlineto
            -263 -20 rlineto
            return
          </CharString>
          <CharString index="45">
            189 hintmask 11010100
            -58 callsubr
            hintmask 00101000
            return
          </CharString>
          <CharString index="46">
            -73 -286 -66 289 -205 742 rlineto
            -170 hlineto
            -205 -743 -67 -286 -68 284 -182 637 163 24 rlineto
            84 -444 -84 vlineto
            108 -24 rlineto
            return
          </CharString>
          <CharString index="47">
            rmoveto
            -311 92 -134 252 152 149 96 75 81 vhcurveto
            return
          </CharString>
          <CharString index="48">
            rmoveto
            -179 126 -127 357 vhcurveto
            1 hlineto
            335 263 192 223 170 -111 110 -262 hvcurveto
            -240 hlineto
            return
          </CharString>
          <CharString index="49">
            722 -23 -105 callsubr
            return
          </CharString>
          <CharString index="50">
            336 738 rmoveto
            -452 2 233 -309 370 hhcurveto
            286 124 74 5 115 hvcurveto
            11 293 -114 1 -39 -171 rlineto
            -49 -58 -99 -52 -193 hhcurveto
            -242 -216 219 426 -9 hvcurveto
            -1 6 0 6 7 vvcurveto
            989 -1 rlineto
            11 48 1 60 84 vvcurveto
            384 -1 -207 221 -307 hhcurveto
            -350 -269 -281 -421 -34 hvcurveto
            -138 2 -55 58 65 vvcurveto
            37 26 78 17 19 vhcurveto
            -140 25 rlineto
            -22 -14 -34 -88 -59 vvcurveto
            -152 159 -67 184 -2 vhcurveto
            170 98 rmoveto
            437 12 212 160 218 hhcurveto
            267 115 -252 -230 2 hvcurveto
            -41 -3 -37 -5 -37 vhcurveto
            return
          </CharString>
          <CharString index="51">
            469 88 hlineto
            -187 19 rlineto
            1221 vlineto
            169 -274 733 -1054 rlineto
            106 hlineto
            return
          </CharString>
          <CharString index="52">
            -23 122 -118 108 497 96 345 133 return
          </CharString>
          <CharString index="53">
            -496 91 382 97 968 126 -7 -20 hstemhm
            221 164 620 178 148 callgsubr
            381 10 rmoveto
            -20 56 96 -13 73 hhcurveto
            351 226 282 351 23 callgsubr
            hvcurveto
            hintmask 11011100
            -48 callgsubr
            hintmask 11101100
            52 48 106 67 128 hhcurveto
            183 158 -134 -327 -3 hvcurveto
            -349 -5 -166 -158 -219 hhcurveto
            hintmask 11011100
            -113 -97 37 33 -20 hvcurveto
            endchar
          </CharString>
          <CharString index="54">
            635 0 130 1300 110 hstem
            279 165 1026 167 vstem
            169 hmoveto
            683 117 hlineto
            -169 90 -239 324 324 vvcurveto
            414 214 161 316 303 193 -178 -371 -326 -178 -316 -205 -122 vhcurveto
            -117 666 vlineto
            56 393 rlineto
            -110 hlineto
            -70 -257 -401 -9 193 129 211 356 5 289 rlinecurve
            417 6 -256 222 -412 hhcurveto
            -355 -333 -181 -469 -8 hvcurveto
            -4 -316 257 -350 178 -99 -412 10 rcurveline
            -62 258 rlineto
            -108 hlineto
            endchar
          </CharString>
          <CharString index="55">
            rmoveto
            1 hlineto
            169 152 83 164 2 hvcurveto
            149 1 -109 102 -202 hhcurveto
            -1 hlineto
            -161 -168 -80 -166 -3 hvcurveto
            -143 -2 103 -109 218 hhcurveto
            5 80 rmoveto
            -138 -59 81 92 107 74 55 125 hvcurveto
            1 hlineto
            135 55 -75 -100 -104 -63 -56 -129 hvcurveto
            endchar
          </CharString>
          <CharString index="56">
            333 574 rmoveto
            -350 172 -247 323 155 167 66 80 78 vhcurveto
            -33 75 rlineto
            -54 -63 -135 -50 -118 hhcurveto
            -195 -164 146 317 -8 hvcurveto
            -1 8 0 8 9 vvcurveto
            728 134 callgsubr
            -143 141 -240 hhcurveto
            -270 -208 -196 -293 -40 hvcurveto
            -148 2 -43 49 61 vvcurveto
            34 24 79 17 20 vhcurveto
            -139 24 rlineto
            -21 -14 -32 -89 -55 vvcurveto
            -151 153 -54 182 -2 vhcurveto
            180 95 rmoveto
            287 17 123 107 163 hhcurveto
            183 72 -138 -165 -30 -2 -32 -2 -29 hvcurveto
            return
          </CharString>
          <CharString index="57">
            -35 76 rlineto
            -852 -313 111 hlineto
            30 192 557 16 -128 -120 rlineto
            return
          </CharString>
          <CharString index="58">
            146 46 101 107 117 vvcurveto
            173 -149 101 -258 vhcurveto
            -215 -77 -55 -137 hhcurveto
            -298 102 vlineto
            33 189 rlineto
            21 31 92 40 144 hhcurveto
            194 64 -68 -116 -117 -98 -87 -182 -21 hvcurveto
            -85 67 callsubr
            return
          </CharString>
          <CharString index="59">
            -87 155 185 -588 103 hhcurveto
            239 85 hlineto
            -86 23 -101 24 -172 470 -155 103 rlinecurve
            194 56 114 183 193 vvcurveto
            265 -143 136 -400 vhcurveto
            return
          </CharString>
          <CharString index="60">
            47 callsubr
            -71 71 hstemhm
            4 2013 hintmask 00000000
            hintmask 10110000
            4 hmoveto
            517 88 hlineto
            -202 19 93 934 43 410 128 -398 384 -979 rlineto
            72 hlineto
            337 1093 84 284 53 -411 147 -933 -189 -19 rlineto
            -88 546 88 vlineto
            -183 20 rlineto
            hintmask 11010000
            -219 1303 235 23 rlineto
            hintmask 10110000
            88 -476 vlineto
            -297 -946 -62 -274 -78 274 -345 946 rlineto
            -479 hlineto
            hintmask 11010000
            -88 vlineto
            232 -22 -162 -1305 -179 -19 rlineto
            endchar
          </CharString>
          <CharString index="61">
            -70 51 -45 60 69 63 55 80 60 -33 55 -78 -67 -65 -59 -76 vhcurveto
            return
          </CharString>
          <CharString index="62">
            37 callsubr
            hstemhm
            286 164 820 165 147 callsubr
            110 hmoveto
            538 88 hlineto
            hintmask 01111000
            -18 callsubr
            hintmask 10111000
            45 callsubr
            hintmask 01111000
            -72 callsubr
            hintmask 10111000
            92 callgsubr
            return
          </CharString>
          <CharString index="63">
            459 88 hlineto
            -157 16 rlineto
            174 vlineto
            -4 105 230 226 321 -504 -142 -17 rlineto
            -88 469 88 vlineto
            -134 15 -409 597 333 326 158 29 rlineto
            81 -473 -81 vlineto
            155 -28 -509 -524 5 129 rlineto
            return
          </CharString>
          <CharString index="64">
            56 201 57 -195 230 -681 rlineto
            return
          </CharString>
          <CharString index="65">
            -179 21 rlineto
            599 151 vlineto
            165 289 -707 141 hhcurveto
            210 88 hlineto
            -80 20 -113 32 -267 562 -189 84 rlinecurve
            469 626 155 22 rlineto
            88 -478 -88 vlineto
            181 -23 -442 -614 rlineto
            -192 return
          </CharString>
          <CharString index="66">
            -175 -18 rlineto
            344 691 rmoveto
            646 vlineto
            47 52 12 106 hhcurveto
            296 81 -132 -182 -234 -124 -113 -182 -50 -154 -2 5 -72 hvcurveto
            return
          </CharString>
          <CharString index="67">
            -510 153 -118 -21 517 -21 1052 84 return
          </CharString>
          <CharString index="68">
            rmoveto
            296 310 281 -309 73 42 rlineto
            return
          </CharString>
          <CharString index="69">
            268 rmoveto
            -209 219 -79 194 210 183 108 180 -4 vhcurveto
            -2 125 -105 70 -123 55 rrcurveto
            return
          </CharString>
          <CharString index="70">
            116 68 66 102 86 vvcurveto
            142 -131 111 -216 -190 -168 -101 -179 -113 73 -69 95 -52 vhcurveto
            return
          </CharString>
          <CharString index="71">
            rmoveto
            1 hlineto
            84 40 return
          </CharString>
          <CharString index="72">
            343 12 rmoveto
            718 vlineto
            1 -1 rlineto
            225 hlineto
            237 145 -113 -238 -256 -143 -129 -239 -118 -49 10 9 -59 hvcurveto
            endchar
          </CharString>
          <CharString index="73">
            163 hintmask 00000000
            hintmask 10010101
            97 hmoveto
            459 hlineto
            hintmask 01010101
            -2 89 -17 callgsubr
            hintmask 10010101
            -170 -17 rlineto
            -88 494 88 vlineto
            hintmask 01010101
            -161 17 rlineto
            912 vlineto
            -65 callgsubr
            hintmask 01100101
            158 -32 rlineto
            -912 vlineto
            hintmask 10010101
            -162 -17 rlineto
            hintmask 00001010
            return
          </CharString>
          <CharString index="74">
            349 438 128 24 rlineto
            84 -424 -84 vlineto
            158 -24 -216 -288 -56 -89 -61 90 -202 287 149 24 rlineto
            84 -473 -84 vlineto
            121 -24 350 -457 -363 -467 -140 -17 rlineto
            endchar
          </CharString>
          <CharString index="75">
            -81 callsubr
            endchar
          </CharString>
          <CharString index="76">
            -44 76 rlineto
            -965 hlineto
            -43 -371 94 -11 101 267 650 21 -116 -148 rlineto
            return
          </CharString>
          <CharString index="77">
            32 rlineto
            -5 hlineto
            return
          </CharString>
          <CharString index="78">
            rmoveto
            -265 12 137 -141 236 hhcurveto
            296 220 243 350 351 -170 247 -318 -152 -163 -66 -80 -76 hvcurveto
            33 -75 rlineto
            54 62 130 50 114 hhcurveto
            194 162 -146 -317 8 hvcurveto
            -26 -715 vlineto
            -6 -44 -7 -58 3 -77 rrcurveto
            177 -2 rmoveto
            27 1 31 3 28 vhcurveto
            543 hlineto
            -288 -17 -122 -107 -157 hhcurveto
            -186 -63 143 166 -2 hvcurveto
            endchar
          </CharString>
          <CharString index="79">
            rmoveto
            -83 callsubr
            hintmask 10100000
            518 hmoveto
            -83 callsubr
            endchar
          </CharString>
          <CharString index="80">
            151 47 callsubr
            hstem
            15 1428 vstem
            15 hmoveto
            538 88 hlineto
            -210 18 358 595 372 -594 -200 -19 rlineto
            -88 570 88 vlineto
            -162 18 -466 684 429 620 161 24 rlineto
            88 -489 -88 vlineto
            183 -23 -339 -553 -345 552 210 24 rlineto
            88 -574 -88 vlineto
            158 -24 433 -639 -450 -665 -177 -18 rlineto
            endchar
          </CharString>
          <CharString index="81">
            158 10 95 -92 -94 vvcurveto
            -144 -115 -66 -221 -90 -83 24 26 -73 vhcurveto
            return
          </CharString>
          <CharString index="82">
            -94 callgsubr
            endchar
          </CharString>
          <CharString index="83">
            rmoveto
            56 43 72 63 99 136 60 -168 175 hhcurveto
            140 114 88 90 51 hvcurveto
            -69 75 rlineto
            -57 -43 -71 -62 -99 -131 -64 168 -176 hhcurveto
            -143 -115 -92 -85 -49 hvcurveto
            return
          </CharString>
          <CharString index="84">
            -248 -26 rlineto
            -76 vlineto
            121 -35 rlineto
            return
          </CharString>
          <CharString index="85">
            hstemhm
            278 169 return
          </CharString>
          <CharString index="86">
            69 554 -98 callgsubr
            return
          </CharString>
          <CharString index="87">
            rmoveto
            -322 138 -277 368 261 265 219 373 322 -139 277 -368 -261 -264 -220 -372 vhcurveto
            187 62 rmoveto
            280 13 120 143 197 hhcurveto
            216 93 -189 -234 16 hvcurveto
            -327 -554 rmoveto
            -227 -93 208 256 -9 hvcurveto
            659 hlineto
            -307 -3 -122 -157 -205 hhcurveto
            endchar
          </CharString>
          <CharString index="88">
            rmoveto
            -56 callsubr
            hintmask 10101010
            1411 vlineto
            hintmask 11001010
            13 callsubr
            hintmask 10101010
            -15 callsubr
            hintmask 11001010
            14 callgsubr
            hintmask 10101010
            -9 callsubr
            endchar
          </CharString>
          <CharString index="89">
            -198 19 rlineto
            79 vlineto
            650 764 170 249 rlineto
            -1092 vlineto
            return
          </CharString>
          <CharString index="90">
            -121 -115 -16 -126 hhcurveto
            -248 -88 hlineto
            return
          </CharString>
          <CharString index="91">
            14 -49 -54 8 -61 hhcurveto
            -261 -264 -220 -372 -242 77 -216 194 -93 hvcurveto
            53 128 rmoveto
            -98 88 -40 163 183 vvcurveto
            314 123 160 208 49 43 -10 -18 37 vhcurveto
            -260 -921 rmoveto
            324 877 rlineto
            96 -90 39 -162 -179 vvcurveto
            -313 -122 -161 -208 -49 -43 10 18 -37 vhcurveto
            return
          </CharString>
          <CharString index="92">
            180 -23 rlineto
            -1145 vlineto
            -116 205 rlineto
            return
          </CharString>
          <CharString index="93">
            722 -23 -10 callgsubr
            return
          </CharString>
          <CharString index="94">
            rmoveto
            89 63 217 191 64 104 -117 97 rcurveline
            -310 -410 rlineto
            528 -44 rmoveto
            94 61 230 195 56 94 -109 97 rcurveline
            -327 -399 rlineto
            return
          </CharString>
          <CharString index="95">
            175 549 rmoveto
            -72 callgsubr
            return
          </CharString>
          <CharString index="96">
            263 hlineto
            118 117 -14 -2 98 hvcurveto
            return
          </CharString>
          <CharString index="97">
            72 18 callgsubr
            -259 -32 rlineto
            -92 vlineto
            158 -36 rlineto
            -902 vlineto
            -164 -14 rlineto
            endchar
          </CharString>
          <CharString index="98">
            163 25 callgsubr
            -163 -20 rlineto
            return
          </CharString>
          <CharString index="99">
            -72 callgsubr
            endchar
          </CharString>
          <CharString index="100">
            107 1327 88 return
          </CharString>
          <CharString index="101">
            rmoveto
            -222 136 -188 218 200 190 150 272 230 -110 184 -245 -204 -185 -154 -272 vhcurveto
            157 9 rmoveto
            195 84 123 136 140 71 -134 -189 -195 -87 -120 -135 -134 -75 142 178 vhcurveto
            endchar
          </CharString>
          <CharString index="102">
            -5 19 39 -7 33 hhcurveto
            141 49 57 81 38 hvcurveto
            54 112 59 259 420 vvcurveto
            110 return
          </CharString>
          <CharString index="103">
            -175 -19 rlineto
            return
          </CharString>
          <CharString index="104">
            -482 -1 callgsubr
          </CharString>
          <CharString index="105">
            -67 -69 -64 return
          </CharString>
          <CharString index="106">
            -92 callsubr
            endchar
          </CharString>
          <CharString index="107">
            -26 77 rcurveline
            -1 hlineto
            -21 -46 -114 -30 -83 hhcurveto
            -1 hlineto
            return
          </CharString>
          <CharString index="108">
            112 620 101 589 99 return
          </CharString>
          <CharString index="109">
            5 -15 -18 4 -28 hhcurveto
            -227 -153 -201 -26 -24 hvcurveto
            -1 hlineto
            1 116 rlineto
            return
          </CharString>
          <CharString index="110">
            -484 -19 callgsubr
            return
          </CharString>
          <CharString index="111">
            471 1 126 -105 -21 hstemhm
            148 1473 hintmask 00000000
            hintmask 01100000
            148 22 rmoveto
            hintmask 10100000
            14 -21 rlineto
            1443 hlineto
            16 25 -750 1490 rlineto
            -31 hlineto
            -513 -1389 rmoveto
            505 1123 551 -1123 rlineto
            endchar
          </CharString>
          <CharString index="112">
            rmoveto
            -34 77 152 -42 198 hhcurveto
            326 166 140 222 -2 hvcurveto
            -2 149 -119 107 -192 15 rrcurveto
            return
          </CharString>
          <CharString index="113">
            223 5 77 -92 -140 vvcurveto
            -140 -101 -88 -221 -97 -116 19 42 -45 vhcurveto
            -28 141 rlineto
            -100 hlineto
            endchar
          </CharString>
          <CharString index="114">
            -130 -166 -21 -30 -61 hvcurveto
            -260 92 vlineto
            41 157 rlineto
            33 43 74 20 102 hhcurveto
            190 160 -138 -301 20 hvcurveto
            -482 15 rlineto
            -138 vlineto
            483 9 rlineto
            -324 -15 -164 -118 -183 hhcurveto
            return
          </CharString>
          <CharString index="115">
            -14 -283 -414 -19 68 92 414 676 -29 34 rlineto
            -136 hlineto
            -5 -13 -455 -795 -4 -8 rrcurveto
            return
          </CharString>
          <CharString index="116">
            -914 -487 914 vlineto
            176 31 rlineto
            88 -526 -88 vlineto
            190 -31 -2 -914 rlineto
            -483 914 hlineto
            185 31 rlineto
            88 -531 -88 vlineto
            183 -31 rlineto
            -912 vlineto
            -189 -21 rlineto
            endchar
          </CharString>
          <CharString index="117">
            hintmask 10110000
            15 callgsubr
            hintmask 01001000
            return
          </CharString>
          <CharString index="118">
            910 rmoveto
            13 callgsubr
            return
          </CharString>
          <CharString index="119">
            vlineto
            496 -12 54 -410 rlineto
            113 hlineto
            -10 514 rlineto
            -1043 hlineto
            return
          </CharString>
          <CharString index="120">
            167 -32 callgsubr
            -466 -88 vlineto
            return
          </CharString>
          <CharString index="121">
            -23 99 581 108 675 98 return
          </CharString>
          <CharString index="122">
            151 -102 138 430 137 -109 157 return
          </CharString>
          <CharString index="123">
            vlineto
            -39 27 rlineto
            -5 hlineto
            -302 -35 rlineto
            -75 vlineto
            181 -18 rlineto
            return
          </CharString>
          <CharString index="124">
            -23 97 1368 96 return
          </CharString>
          <CharString index="125">
            hintmask 10100000
            27 callgsubr
            hintmask 01010000
            return
          </CharString>
          <CharString index="126">
            510 88 hlineto
            -190 16 rlineto
            442 165 vlineto
            173 177 -546 165 hhcurveto
            return
          </CharString>
          <CharString index="127">
            rmoveto
            657 -428 56 91 -518 408 512 418 -50 87 -657 -440 rlineto
            return
          </CharString>
          <CharString index="128">
            -155 16 rlineto
            582 vlineto
            331 -69 147 -260 -146 -189 -90 -62 -75 vhcurveto
            104 -46 -85 48 -146 hhcurveto
            -146 -187 -99 -78 -89 hvcurveto
            2 51 rlineto
            return
          </CharString>
          <CharString index="129">
            rmoveto
            -179 85 -50 132 vhcurveto
            2 hlineto
            113 1 173 59 59 45 0 callsubr
            63 callgsubr
            return
          </CharString>
          <CharString index="130">
            rmoveto
            166 123 84 81 73 hvcurveto
            return
          </CharString>
          <CharString index="131">
            -306 -5 -113 -37 -117 vhcurveto
            return
          </CharString>
          <CharString index="132">
            166 -123 173 -123 150 return
          </CharString>
          <CharString index="133">
            rmoveto
            540 126 -540 hlineto
            return
          </CharString>
          <CharString index="134">
            142 31 rlineto
            88 -451 -88 vlineto
            173 -31 -296 -789 -25 -71 -24 69 -294 791 174 31 rlineto
            88 -495 -88 vlineto
            131 -31 return
          </CharString>
          <CharString index="135">
            -536 -21 59 -21 519 return
          </CharString>
          <CharString index="136">
            116 hmoveto
            537 88 hlineto
            -200 19 rlineto
            1306 710 -1305 vlineto
            -178 -20 rlineto
            -88 543 88 vlineto
            -199 20 rlineto
            return
          </CharString>
          <CharString index="137">
            -23 117 -117 122 483 96 -84 88 350 128 -98 106 return
          </CharString>
          <CharString index="138">
            hstemhm
            119 110 -95 153 return
          </CharString>
          <CharString index="139">
            -80 -23 107 977 107 return
          </CharString>
          <CharString index="140">
            -13 48 54 -8 60 hhcurveto
            261 265 219 373 240 -78 215 -192 94 hvcurveto
            67 194 -71 20 -69 -186 rlineto
            return
          </CharString>
          <CharString index="141">
            104 -59 -190 -172 -97 -74 -171 -104 -67 11 6 -37 hvcurveto
            endchar
          </CharString>
          <CharString index="142">
            rmoveto
            -657 440 -50 -87 512 -418 -518 -408 56 -91 return
          </CharString>
          <CharString index="143">
            -88 vlineto
            187 -30 rlineto
            -552 -1 -79 -312 -117 hhcurveto
            -69 -47 return
          </CharString>
          <CharString index="144">
            423 0 63 callsubr
            return
          </CharString>
          <CharString index="145">
            143 31 rlineto
            88 -488 -88 vlineto
            184 -30 rlineto
            -463 vlineto
            -28 -55 -150 -22 -105 hhcurveto
            -229 -46 78 310 hvcurveto
            return
          </CharString>
          <CharString index="146">
            -86 callsubr
            -4 callsubr
            344 return
          </CharString>
          <CharString index="147">
            vlineto
            -40 -30 callsubr
            return
          </CharString>
          <CharString index="148">
            228 258 228 return
          </CharString>
          <CharString index="149">
            rmoveto
            -64 78 125 -52 181 hhcurveto
            285 247 219 366 2 hvcurveto
            402 2 -230 209 -322 hhcurveto
            return
          </CharString>
          <CharString index="150">
            -320 -221 -167 -326 hvcurveto
            176 12 rmoveto
            259 144 122 237 119 48 -9 -9 60 vhcurveto
            return
          </CharString>
          <CharString index="151">
            95 1066 105 callsubr
            return
          </CharString>
          <CharString index="152">
            -186 -19 rlineto
            -88 532 88 vlineto
            return
          </CharString>
          <CharString index="153">
            205 -24 rlineto
            -892 vlineto
            return
          </CharString>
          <CharString index="154">
            0 88 1346 88 return
          </CharString>
          <CharString index="155">
            hstemhm
            -23 1455 return
          </CharString>
          <CharString index="156">
            1602 -16 99 -83 88 -88 96 -96 107 1050 -20 274 111 -99 104 -93 88 -82 98 -86 76 return
          </CharString>
          <CharString index="157">
            69 378 -100 callgsubr
            return
          </CharString>
          <CharString index="158">
            rmoveto
            92 87 81 100 hvcurveto
            103 -1 -69 75 -91 hhcurveto
            -95 -86 -76 -104 hvcurveto
            -95 1 69 -84 93 hhcurveto
            endchar
          </CharString>
          <CharString index="159">
            97 hmoveto
            516 88 hlineto
            -192 16 rlineto
            433 618 return
          </CharString>
          <CharString index="160">
            hstemhm
            66 callsubr
            return
          </CharString>
          <CharString index="161">
            -334 rmoveto
            -1 -120 rlineto
            -16 35 63 -11 46 hhcurveto
            1 hlineto
            154 90 48 141 6 hvcurveto
            4 return
          </CharString>
          <CharString index="162">
            vhcurveto
            86 vlineto
            -24 -48 -59 -17 -53 hhcurveto
            -85 return
          </CharString>
          <CharString index="163">
            0 96 1061 -20 286 104 -75 76 return
          </CharString>
          <CharString index="164">
            -85 vlineto
            164 -23 rlineto
            -1308 vlineto
            return
          </CharString>
          <CharString index="165">
            133 -112 -21 hstemhm
            return
          </CharString>
          <CharString index="166">
            -163 18 rlineto
            911 vlineto
            152 30 rlineto
            89 -477 -89 vlineto
            162 -30 rlineto
            -911 vlineto
            return
          </CharString>
          <CharString index="167">
            111 -88 88 125 callgsubr
            889 119 return
          </CharString>
          <CharString index="168">
            174 -5 121 callgsubr
            return
          </CharString>
          <CharString index="169">
            250 -16 99 -83 88 -88 107 return
          </CharString>
          <CharString index="170">
            88 -88 -7 callsubr
            return
          </CharString>
          <CharString index="171">
            -94 -23 100 1364 97 return
          </CharString>
          <CharString index="172">
            170 hintmask 00000000
            return
          </CharString>
          <CharString index="173">
            284 169 return
          </CharString>
          <CharString index="174">
            -11 rlineto
            -111 vlineto
            76 callgsubr
            return
          </CharString>
          <CharString index="175">
            -23 111 591 101 386 -20 291 101 return
          </CharString>
          <CharString index="176">
            187 -32 callgsubr
            -543 -88 vlineto
            return
          </CharString>
          <CharString index="177">
            0 78 callsubr
            return
          </CharString>
          <CharString index="178">
            rlineto
            88 -445 -88 vlineto
            return
          </CharString>
          <CharString index="179">
            -36 rlineto
            -897 vlineto
            return
          </CharString>
          <CharString index="180">
            215 23 rlineto
            95 -555 -89 vlineto
            179 -30 rlineto
            -913 vlineto
            -193 -20 rlineto
            return
          </CharString>
          <CharString index="181">
            84 0 108 488 120 695 77 callgsubr
            138 166 return
          </CharString>
          <CharString index="182">
            -32 callgsubr
            -509 48 callgsubr
            return
          </CharString>
          <CharString index="183">
            -149 -57 -68 -95 -93 vvcurveto
            return
          </CharString>
          <CharString index="184">
            728 -11 102 -81 -21 1445 88 109 callsubr
            -42 2107 return
          </CharString>
          <CharString index="185">
            88 1323 4 callgsubr
            return
          </CharString>
          <CharString index="186">
            271 -127 161 -400 return
          </CharString>
          <CharString index="187">
            hstemhm
            94 131 callgsubr
            return
          </CharString>
          <CharString index="188">
            88 53 callsubr
            return
          </CharString>
          <CharString index="189">
            802 1196 rlineto
            return
          </CharString>
          <CharString index="190">
            rlineto
            88 -505 47 callgsubr
            -914 vlineto
            -163 -16 rlineto
            return
          </CharString>
          <CharString index="191">
            -203 178 -111 204 204 106 callgsubr
            vhcurveto
            return
          </CharString>
          <CharString index="192">
            vlineto
            17 callgsubr
            return
          </CharString>
          <CharString index="193">
            -376 0 92 905 171 -9 -20 return
          </CharString>
          <CharString index="194">
            815 0 88 619 90 637 88 return
          </CharString>
          <CharString index="195">
            rmoveto
            107 hlineto
            39 723 rlineto
            -184 hlineto
            return
          </CharString>
          <CharString index="196">
            109 -88 88 hstemhm
            return
          </CharString>
          <CharString index="197">
            hstemhm
            322 170 return
          </CharString>
          <CharString index="198">
            hstemhm
            140 callsubr
            return
          </CharString>
          <CharString index="199">
            hstemhm
            104 182 return
          </CharString>
          <CharString index="200">
            -225 124 -140 258 119 callgsubr
            return
          </CharString>
          <CharString index="201">
            26 callsubr
            endchar
          </CharString>
          <CharString index="202">
            -1303 vlineto
            return
          </CharString>
          <CharString index="203">
            rlineto
            110 hlineto
            return
          </CharString>
          <CharString index="204">
            -271 -278 109 792 142 774 108 hstemhm
            return
          </CharString>
          <CharString index="205">
            84 90 27 43 57 vhcurveto
            86 vlineto
            -24 -48 -58 -17 -54 hhcurveto
            -84 return
          </CharString>
          <CharString index="206">
            vstem
            703 177 rmoveto
            91 93 -442 440 104 -11 rlineto
            return
          </CharString>
          <CharString index="207">
            -88 vlineto
            151 -30 rlineto
            -911 vlineto
            -154 -19 rlineto
            endchar
          </CharString>
          <CharString index="208">
            -668 -497 92 1566 -20 return
          </CharString>
          <CharString index="209">
            -23 95 395 95 489 117 return
          </CharString>
          <CharString index="210">
            13 47 callsubr
            return
          </CharString>
          <CharString index="211">
            -265 -23 96 994 94 return
          </CharString>
          <CharString index="212">
            66 callgsubr
            hstemhm
            return
          </CharString>
          <CharString index="213">
            227 -173 165 return
          </CharString>
          <CharString index="214">
            123 52 123 return
          </CharString>
          <CharString index="215">
            -481 131 return
          </CharString>
          <CharString index="216">
            145 -21 hstemhm
            return
          </CharString>
          <CharString index="217">
            2 7 -38 hvcurveto
            endchar
          </CharString>
          <CharString index="218">
            -88 vlineto
            160 return
          </CharString>
          <CharString index="219">
            170 28 rlineto
            74 -542 -74 vlineto
            206 -28 rlineto
            return
          </CharString>
          <CharString index="220">
            728 -11 102 -102 125 -104 -21 1445 88 return
          </CharString>
          <CharString index="221">
            270 rmoveto
            53 -69 rlineto
            507 -201 143 hlineto
            return
          </CharString>
          <CharString index="222">
            rmoveto
            104 hlineto
            43 1308 rlineto
            return
          </CharString>
          <CharString index="223">
            0 87 -87 108 599 90 return
          </CharString>
          <CharString index="224">
            1 -42 rrcurveto
            112 hlineto
            1 2 return
          </CharString>
          <CharString index="225">
            0 85 -85 109 1315 return
          </CharString>
          <CharString index="226">
            475 58 callsubr
            return
          </CharString>
          <CharString index="227">
            hintmask 00000000
            hintmask 10110100
            return
          </CharString>
          <CharString index="228">
            97 1326 98 return
          </CharString>
          <CharString index="229">
            hstemhm
            283 162 return
          </CharString>
          <CharString index="230">
            122 51 123 return
          </CharString>
          <CharString index="231">
            -497 92 405 return
          </CharString>
          <CharString index="232">
            95 1066 -20 return
          </CharString>
          <CharString index="233">
            -193 22 rlineto
            413 vlineto
            222 252 rlineto
            return
          </CharString>
          <CharString index="234">
            -426 -281 113 1704 111 hstem
            return
          </CharString>
          <CharString index="235">
            hhcurveto
            -239 -144 118 234 hvcurveto
            endchar
          </CharString>
          <CharString index="236">
            0 88 948 128 return
          </CharString>
          <CharString index="237">
            vlineto
            153 30 rlineto
            88 return
          </CharString>
          <CharString index="238">
            227 -191 164 return
          </CharString>
          <CharString index="239">
            hstemhm
            93 186 return
          </CharString>
          <CharString index="240">
            433 rmoveto
            -282 182 -167 332 return
          </CharString>
          <CharString index="241">
            336 427 290 -67 224 -377 return
          </CharString>
          <CharString index="242">
            -218 -24 100 437 126 432 101 return
          </CharString>
          <CharString index="243">
            699 135 hstem
            113 return
          </CharString>
          <CharString index="244">
            129 callgsubr
            2 return
          </CharString>
          <CharString index="245">
            hstemhm
            154 161 return
          </CharString>
          <CharString index="246">
            154 319 hstemhm
            return
          </CharString>
          <CharString index="247">
            271 166 return
          </CharString>
          <CharString index="248">
            -80 -23 107 -65 -21 1063 107 -22 -20 return
          </CharString>
          <CharString index="249">
            378 7 298 308 483 vvcurveto
            return
          </CharString>
          <CharString index="250">
            vlineto
            -221 -81 -73 -169 -151 -68 return
          </CharString>
          <CharString index="251">
            816 hstem
            237 142 vstem
            426 return
          </CharString>
          <CharString index="252">
            107 hstem
            547 162 vstem
            263 hmoveto
            return
          </CharString>
          <CharString index="253">
            175 187 83 -18 54 -19 23 hvcurveto
            return
          </CharString>
          <CharString index="254">
            hintmask 00000000
            hintmask 10111000
            return
          </CharString>
          <CharString index="255">
            vlineto
            -163 -16 rlineto
            endchar
          </CharString>
          <CharString index="256">
            rrcurveto
            111 hlineto
            return
          </CharString>
        <CharString name=".notdef">
          472 0 252 -231 -21 hstemhm
          177 1416 hintmask 00000000
          hintmask 01100000
          177 hmoveto
          1416 1416 -1416 hlineto
          263 -1029 rmoveto
          343 318 -344 338 114 116 333 -352 328 351 119 -116 -348 -334 348 -343 rlineto
          hintmask 10100000
          -113 -113 -337 353 -324 -353 rlineto
          endchar
        </CharString>
        <CharString name="A">
          -39 callgsubr
          48 callsubr
          hintmask 00000000
          hintmask 11011000
          -103 callgsubr
          hintmask 11101000
          -43 callsubr
          endchar
        </CharString>
        <CharString name="AE">
          568 53 callgsubr
          hstemhm
          822 167 396 103 hintmask 00000000
          hintmask 11110110
          -35 106 -64 callgsubr
          hintmask 11101110
          43 callgsubr
          hintmask 11110110
          74 callgsubr
        </CharString>
        <CharString name="AEacute">
          568 53 callgsubr
          109 callsubr
          822 167 -165 454 107 103 hintmask 0000010100000000
          880 1646 -96 callsubr
          -38 callgsubr
          -859 -1593 -64 callgsubr
          hintmask 1111001010000000
          43 callgsubr
          hintmask 1110101010000000
          74 callgsubr
        </CharString>
        <CharString name="Aacute">
          -39 callgsubr
          150 -21 48 callsubr
          -865 454 hintmask 00000000
          hintmask 11010100
          -103 callgsubr
          hintmask 11100100
          -43 callsubr
          hintmask 00001010
          -344 1107 -69 callsubr
        </CharString>
        <CharString name="Abreve">
          -39 callgsubr
          138 135 48 callsubr
          -1058 95 465 94 hintmask 00000000
          hintmask 11010100
          -103 callgsubr
          hintmask 11100100
          -43 callsubr
          hintmask 00001011
          -263 1116 -1 callsubr
        </CharString>
        <CharString name="Acircumflex">
          -39 callgsubr
          156 341 48 callsubr
          -1072 681 hintmask 00000000
          hintmask 11010100
          -103 callgsubr
          hintmask 11100100
          -43 callsubr
          hintmask 00001010
          -539 1134 -90 callsubr
        </CharString>
        <CharString name="Adieresis">
          -39 callgsubr
          48 callsubr
          hintmask 00000000
          hintmask 11011000
          -103 callgsubr
          hintmask 11101000
          -43 callsubr
          hintmask 00000000
          -33 1169 -107 callsubr
          endchar
        </CharString>
        <CharString name="Agrave">
          -39 callgsubr
          150 -21 48 callsubr
          -1025 454 hintmask 00000000
          hintmask 11010100
          -103 callgsubr
          hintmask 11100100
          -43 callsubr
          hintmask 00001010
          -162 1107 12 callgsubr
        </CharString>
        <CharString name="Amacron">
          -39 callgsubr
          242 126 48 callsubr
          -995 540 hintmask 00000000
          hintmask 11010100
          -103 callgsubr
          hintmask 11100100
          -43 callsubr
          hintmask 00001010
          -530 1220 94 callsubr
        </CharString>
        <CharString name="Aogonek">
          90 -510 115 395 88 345 106 876 122 0 -20 hstemhm
          874 161 148 callgsubr
          -23 hmoveto
          461 88 hlineto
          -181 20 107 325 rlineto
          639 hlineto
          109 -326 -180 -19 rlineto
          -88 203 vlineto
          -143 -61 -118 -145 -112 vvcurveto
          -145 124 -47 124 84 91 27 43 57 vhcurveto
          86 vlineto
          -24 -47 -59 -17 -53 hhcurveto
          -86 -74 34 97 86 95 120 133 58 hvcurveto
          169 88 hlineto
          -134 19 -511 1430 rlineto
          -168 hlineto
          -510 -1430 -132 -19 rlineto
          422 451 rmoveto
          225 675 rlineto
          hintmask 11110100
          -43 callsubr
          endchar
        </CharString>
        <CharString name="Aring">
          107 0 88 345 106 876 122 -21 80 -59 -20 414 83 48 callsubr
          -1051 127 390 126 -38 callgsubr
          hintmask 1100101000000000
          -103 callgsubr
          hintmask 1110001000000000
          -43 callsubr
          hintmask 0001010110000000
          -267 977 -52 callsubr
        </CharString>
        <CharString name="Atilde">
          -39 callgsubr
          188 107 callsubr
          48 callsubr
          -1134 808 hintmask 00000000
          hintmask 11010010
          -103 callgsubr
          hintmask 11100010
          -43 callsubr
          hintmask 00001101
          -584 1210 -25 callgsubr
        </CharString>
        <CharString name="B">
          78 -70 callsubr
        </CharString>
        <CharString name="C">
          64 callgsubr
          hstem
          74 193 vstem
          74 768 -98 callsubr
          endchar
        </CharString>
        <CharString name="CR">
          -1298 endchar
        </CharString>
        <CharString name="Cacute">
          64 callgsubr
          129 -21 hstemhm
          74 193 380 454 hintmask 11010000
          74 768 -98 callsubr
          hintmask 00101000
          629 878 -69 callsubr
        </CharString>
        <CharString name="Ccaron">
          64 callgsubr
          139 callsubr
          74 193 193 649 hintmask 11010000
          74 768 -98 callsubr
          hintmask 00101000
          634 924 -32 callsubr
        </CharString>
        <CharString name="Ccedilla">
          32 108 callsubr
          328 97 1364 99 hstem
          74 193 519 144 vstem
          536 54 callsubr
          109 -66 108 -45 53 205 10 73 63 100 5 50 273 rcurveline
          -100 15 -82 -193 rlineto
          -43 -54 -69 -33 -170 hhcurveto
          -350 -159 341 370 421 217 232 278 162 107 -29 -34 37 hvcurveto
          44 -237 rlineto
          106 hlineto
          17 334 rlineto
          16 -71 -178 49 -183 hhcurveto
          -412 -317 -314 -456 -460 235 -310 421 -20 hvcurveto
          23 -40 33 -73 -69 vvcurveto
          -126 -55 -20 -100 vhcurveto
          -1 hlineto
          -20 -45 6 10 -29 hvcurveto
          endchar
        </CharString>
        <CharString name="Ccircumflex">
          64 callgsubr
          135 341 hstemhm
          74 193 175 681 hintmask 11010000
          74 768 -98 callsubr
          hintmask 00101000
          436 905 -90 callsubr
        </CharString>
        <CharString name="Cdotaccent">
          64 callgsubr
          175 252 hstemhm
          74 193 404 228 hintmask 00101000
          774 1713 -89 callsubr
          hintmask 11010000
          -700 -945 -98 callsubr
          endchar
        </CharString>
        <CharString name="D">
          83 callgsubr
          -22 callsubr
          847 181 hintmask 00000000
          hintmask 01000111
          102 hmoveto
          -11 callsubr
          hintmask 10000111
          -52 callgsubr
          hintmask 10001011
          -17 callsubr
          hintmask 00110011
          164 -86 callsubr
          hintmask 01000111
          92 callgsubr
          hintmask 10000111
          345 12 rmoveto
          1327 -81 callgsubr
        </CharString>
        <CharString name="Dcaron">
          83 callgsubr
          154 319 -22 callsubr
          25 649 173 181 hintmask 0000001010000000
          720 1692 -81 callsubr
          -38 callgsubr
          -370 -1967 rmoveto
          -11 callsubr
          hintmask 0100010101000000
          -52 callgsubr
          hintmask 1000010101000000
          -17 callsubr
          hintmask 1000100101000000
          164 -86 callsubr
          hintmask 0011000101000000
          92 callgsubr
          hintmask 0100010101000000
          345 12 rmoveto
          1327 -81 callgsubr
        </CharString>
        <CharString name="Dcroat">
          62 callsubr
          622 106 576 -14 callgsubr
          -576 -158 -106 158 -622 97 callgsubr
          629 385 106 -385 592 -81 callgsubr
        </CharString>
        <CharString name="Delta">
          4 callsubr
        </CharString>
        <CharString name="Deltagreek">
          4 callsubr
        </CharString>
        <CharString name="E">
          32 -8 callgsubr
          -87 88 -22 callsubr
          402 104 148 callgsubr
          103 hmoveto
          -101 callgsubr
          hintmask 11011100
          -61 callgsubr
        </CharString>
        <CharString name="Eacute">
          -16 callgsubr
          146 -21 -22 callsubr
          114 454 -166 104 hintmask 00010100
          617 1646 -96 callsubr
          hintmask 00000000
          -458 -1699 rmoveto
          -101 callgsubr
          hintmask 11101010
          -61 callgsubr
        </CharString>
        <CharString name="Ebreve">
          -16 callgsubr
          134 135 -22 callsubr
          -79 95 386 104 -25 94 hintmask 00010101
          698 1655 -92 callsubr
          hintmask 00000000
          -595 -1655 rmoveto
          -101 callgsubr
          hintmask 11101010
          -61 callgsubr
        </CharString>
        <CharString name="Ecaron">
          -16 callgsubr
          171 319 -22 callsubr
          -74 649 -173 104 hintmask 00010100
          621 1692 -81 callsubr
          hintmask 00000000
          -270 -1967 rmoveto
          -101 callgsubr
          hintmask 11101010
          -61 callgsubr
        </CharString>
        <CharString name="Ecircumflex">
          -16 callgsubr
          -87 88 151 341 -22 callsubr
          -92 681 -187 104 hintmask 00000000
          hintmask 11100101
          103 hmoveto
          -101 callgsubr
          hintmask 11010101
          -80 callgsubr
          hintmask 00001010
          320 1585 -90 callsubr
        </CharString>
        <CharString name="Edieresis">
          -16 callgsubr
          187 253 -22 callsubr
          -106 41 callsubr
          -206 104 hintmask 00000000
          hintmask 00010110
          930 -91 callgsubr
          hintmask 00000000
          -341 -1708 rmoveto
          -101 callgsubr
          hintmask 11101001
          -61 callgsubr
        </CharString>
        <CharString name="Edotaccent">
          -16 callgsubr
          192 252 -22 callsubr
          137 228 37 104 hintmask 00010100
          687 1713 -89 callsubr
          hintmask 00000000
          -584 -1713 rmoveto
          -101 callgsubr
          hintmask 11101010
          -61 callgsubr
        </CharString>
        <CharString name="Egrave">
          -16 callgsubr
          146 -21 -22 callsubr
          -76 454 24 104 hintmask 00010100
          769 1646 -71 callsubr
          hintmask 00000000
          -666 -1646 rmoveto
          -101 callgsubr
          hintmask 11101010
          -61 callgsubr
        </CharString>
        <CharString name="Emacron">
          -16 callgsubr
          238 126 -22 callsubr
          -15 540 -123 104 hintmask 00010100
          432 1759 26 callsubr
          hintmask 00000000
          -329 -1885 rmoveto
          -101 callgsubr
          hintmask 11101010
          -61 callgsubr
        </CharString>
        <CharString name="Eng">
          308 0 87 -87 107 1328 87 hstemhm
          280 119 889 118 147 callsubr
          117 hmoveto
          469 87 hlineto
          hintmask 01111000
          -187 20 rlineto
          1234 vlineto
          158 -287 673 -1027 -12 -39 -19 -39 -26 -36 rlinecurve
          -68 -97 -106 -63 -130 -29 44 -72 rcurveline
          135 15 117 44 115 128 rrcurveto
          72 82 54 108 317 vvcurveto
          1066 vlineto
          167 23 rlineto
          87 -458 -87 vlineto
          173 -23 rlineto
          -1218 vlineto
          -155 277 -680 1051 rlineto
          -336 -87 hlineto
          163 -24 rlineto
          -1304 vlineto
          hintmask 10111000
          -163 -20 rlineto
          endchar
        </CharString>
        <CharString name="Eogonek">
          33 -510 115 395 1 callsubr
          -87 88 -22 callsubr
          285 162 -45 104 42 218 -38 callgsubr
          hintmask 1111011010000000
          103 hmoveto
          918 hlineto
          -155 -61 -134 -144 -113 71 callgsubr
          91 27 43 57 55 callsubr
          -74 34 97 95 155 143 136 26 hvcurveto
          27 hlineto
          63 346 -97 31 -104 -256 -627 -17 rlineto
          631 vlineto
          hintmask 1111010110000000
          377 -5 25 -175 rlineto
          104 452 -104 hlineto
          -25 -170 -377 -6 rlineto
          596 vlineto
          548 -9 56 -197 rlineto
          97 hlineto
          -28 301 rlineto
          -1013 hlineto
          hintmask 1110111010000000
          -61 callgsubr
        </CharString>
        <CharString name="Eth">
          62 callsubr
          641 93 570 -14 callgsubr
          -570 -157 -93 157 -641 97 callgsubr
          648 385 93 -385 586 -81 callgsubr
        </CharString>
        <CharString name="Euro">
          253 -28 92 486 105 267 105 437 102 hstem
          323 176 vstem
          92 550 rmoveto
          242 hlineto
          -350 46 194 -228 355 hhcurveto
          262 98 92 4 86 hvcurveto
          21 239 -93 18 -53 -163 rlineto
          -56 -75 -80 -42 -127 hhcurveto
          -297 -124 200 286 -36 hvcurveto
          551 105 -560 hlineto
          -2 34 -1 35 36 vvcurveto
          57 3 54 5 51 vhcurveto
          586 105 -570 hlineto
          278 57 154 159 238 hhcurveto
          134 111 -31 -39 42 hvcurveto
          32 -223 rlineto
          94 hlineto
          16 323 rlineto
          18 -80 -125 54 -178 hhcurveto
          -334 -239 -202 -337 -86 hvcurveto
          -244 -105 222 hlineto
          -9 -62 -5 -66 -69 vvcurveto
          -24 0 -23 1 -23 vhcurveto
          -232 hlineto
          endchar
        </CharString>
        <CharString name="F">
          -34 0 97 621 106 598 99 -87 88 -22 callsubr
          443 95 148 callgsubr
          111 hmoveto
          9 callgsubr
          hintmask 11011100
          94 callgsubr
        </CharString>
        <CharString name="G">
          213 14 callsubr
          hstem
          99 192 882 172 vstem
          99 736 -69 callgsubr
        </CharString>
        <CharString name="Gbreve">
          216 14 callsubr
          117 135 hstemhm
          102 192 199 95 465 94 29 172 hintmask 00010110
          823 1655 -92 callsubr
          hintmask 11101001
          -721 -919 -69 callgsubr
        </CharString>
        <CharString name="Gcaron">
          213 14 callsubr
          139 callsubr
          99 192 205 649 28 172 hintmask 11101010
          99 736 -104 callgsubr
          hintmask 00010100
          645 956 -32 callsubr
        </CharString>
        <CharString name="Gcircumflex">
          216 14 callsubr
          135 341 hstemhm
          102 192 187 681 14 172 hintmask 11101010
          102 736 -104 callgsubr
          hintmask 00010100
          447 937 -90 callsubr
        </CharString>
        <CharString name="Gcommaaccent">
          221 -536 -21 59 -21 496 99 581 108 675 98 hstemhm
          106 192 491 141 250 172 hintmask 11000010
          706 -208 -100 callsubr
          hintmask 00111101
          -600 944 -69 callgsubr
        </CharString>
        <CharString name="Gdotaccent">
          216 14 callsubr
          175 252 hstemhm
          102 192 415 228 239 172 hintmask 00010100
          812 1713 -89 callsubr
          hintmask 11101010
          -710 -977 -69 callgsubr
        </CharString>
        <CharString name="Gtilde">
          213 14 callsubr
          167 107 callsubr
          hstemhm
          99 192 126 808 -52 172 hintmask 11100101
          99 736 -104 callgsubr
          hintmask 00011010
          403 1013 -25 callgsubr
        </CharString>
        <CharString name="H">
          390 0 88 640 52 callgsubr
          vstem
          -57 callgsubr
          endchar
        </CharString>
        <CharString name="Hbar">
          390 0 107 -106 85 -85 109 522 106 304 94 275 112 -89 89 123 callgsubr
          786 167 -38 callgsubr
          hintmask 0101101110000000
          110 hmoveto
          520 89 hlineto
          hintmask 1001101110000000
          -179 18 rlineto
          525 786 vlineto
          hintmask 0011101110000000
          -522 vlineto
          hintmask 0101101110000000
          -171 -24 rlineto
          -85 506 85 vlineto
          hintmask 0011110110000000
          -168 24 rlineto
          932 234 94 -234 275 vlineto
          hintmask 0101101110000000
          168 23 rlineto
          89 -506 -89 vlineto
          hintmask 0101110110000000
          171 -23 rlineto
          -275 -786 275 vlineto
          hintmask 0101101110000000
          178 23 rlineto
          89 -513 -89 vlineto
          hintmask 1001110110000000
          168 -23 rlineto
          -275 -234 -94 234 -935 vlineto
          hintmask 0101101110000000
          -174 -18 rlineto
          341 649 rmoveto
          304 786 -304 vlineto
          endchar
        </CharString>
        <CharString name="Hcircumflex">
          390 0 88 640 108 598 88 151 341 53 callsubr
          49 681 51 170 hintmask 11101010
          -57 callgsubr
          hintmask 00010100
          460 1585 -90 callsubr
        </CharString>
        <CharString name="I">
          -484 -1 callgsubr
        </CharString>
        <CharString name="I.uc">
          -482 -19 callgsubr
          191 252 hstemhm
          298 228 -204 65 callsubr
          hintmask 01100100
          122 hmoveto
          569 hlineto
          hintmask 10100100
          87 vlineto
          hintmask 01100100
          -97 callsubr
          hintmask 10100100
          -200 -19 rlineto
          hintmask 00011000
          279 -13 callgsubr
        </CharString>
        <CharString name="IJ">
          285 0 87 -87 107 1303 112 -88 88 90 callsubr
          636 65 callsubr
          hintmask 01011000
          122 hmoveto
          569 hlineto
          hintmask 10011000
          87 vlineto
          hintmask 01011000
          -97 callsubr
          hintmask 10011000
          -200 -19 rlineto
          hintmask 00000000
          964 -106 -67 callgsubr
          hintmask 00010100
          847 vlineto
          hintmask 00100100
          24 callgsubr
          hintmask 00010100
          46 callsubr
          hintmask 00100100
          24 callsubr
          endchar
        </CharString>
        <CharString name="IJ_acutecomb">
          283 0 87 -87 107 1303 112 -88 88 145 -21 90 callsubr
          570 454 -390 65 callsubr
          hintmask 01010100
          122 hmoveto
          569 hlineto
          hintmask 10010100
          87 vlineto
          hintmask 01010100
          -97 callsubr
          hintmask 10010100
          -200 -19 rlineto
          hintmask 00001010
          996 1558 -96 callsubr
          hintmask 00000000
          22 -1717 -67 callgsubr
          hintmask 00010001
          847 vlineto
          hintmask 00100001
          24 callgsubr
          hintmask 00010001
          46 callsubr
          hintmask 00100001
          24 callsubr
          hintmask 00010001
          -754 1664 -69 callsubr
        </CharString>
        <CharString name="Iacute">
          3 callsubr
          109 callsubr
          311 454 -443 65 callsubr
          hintmask 01100100
          122 hmoveto
          569 hlineto
          hintmask 10100100
          87 vlineto
          hintmask 01100100
          -97 callsubr
          hintmask 10100100
          -200 -19 rlineto
          hintmask 00011000
          245 1558 -69 callsubr
        </CharString>
        <CharString name="Ibreve">
          3 callsubr
          133 135 hstemhm
          81 95 146 170 149 94 hintmask 00000000
          hintmask 01100100
          122 hmoveto
          569 hlineto
          hintmask 10100100
          87 vlineto
          hintmask 01100100
          -97 callsubr
          hintmask 10100100
          -200 -19 rlineto
          hintmask 00011010
          289 1567 -1 callsubr
        </CharString>
        <CharString name="Icircumflex">
          3 callsubr
          151 341 hstemhm
          70 681 -429 65 callsubr
          hintmask 01100100
          122 hmoveto
          569 hlineto
          hintmask 10100100
          87 vlineto
          hintmask 01100100
          -97 callsubr
          hintmask 10100100
          -200 -19 rlineto
          hintmask 00011000
          16 1585 -90 callsubr
        </CharString>
        <CharString name="Idieresis">
          -484 -87 callsubr
          hintmask 00000000
          521 1620 -107 callsubr
          endchar
        </CharString>
        <CharString name="Idotaccent">
          3 callsubr
          191 252 hstemhm
          297 228 -203 65 callsubr
          hintmask 01100100
          122 hmoveto
          569 hlineto
          hintmask 10100100
          87 vlineto
          hintmask 01100100
          -97 callsubr
          hintmask 10100100
          -200 -19 rlineto
          hintmask 00011000
          278 -13 callgsubr
        </CharString>
        <CharString name="Igrave">
          3 callsubr
          109 callsubr
          57 454 -189 65 callsubr
          hintmask 01100100
          122 hmoveto
          569 hlineto
          hintmask 10100100
          87 vlineto
          hintmask 01100100
          -97 callsubr
          hintmask 10100100
          -200 -19 rlineto
          hintmask 00011000
          333 1558 12 callgsubr
        </CharString>
        <CharString name="Imacron">
          3 callsubr
          237 126 hstemhm
          145 540 -363 65 callsubr
          hintmask 01100100
          122 hmoveto
          569 hlineto
          hintmask 10100100
          87 vlineto
          hintmask 01100100
          -97 callsubr
          hintmask 10100100
          -200 -19 rlineto
          hintmask 00011000
          23 1671 94 callsubr
        </CharString>
        <CharString name="Iogonek">
          -484 -510 115 395 63 callsubr
          hstemhm
          122 155 45 65 callsubr
          hintmask 11011100
          122 hmoveto
          262 hlineto
          -134 -61 -135 -145 -112 71 callgsubr
          90 27 43 58 55 callsubr
          -74 34 97 86 108 120 128 58 hvcurveto
          178 87 hlineto
          hintmask 10111100
          -97 callsubr
          hintmask 11011100
          -200 -19 rlineto
          endchar
        </CharString>
        <CharString name="Itilde">
          3 callsubr
          183 107 callsubr
          hstemhm
          7 808 -493 65 callsubr
          hintmask 01100010
          122 hmoveto
          569 hlineto
          hintmask 10100010
          87 vlineto
          hintmask 01100010
          -97 callsubr
          hintmask 10100010
          -200 -19 rlineto
          hintmask 00011100
          -30 1661 -25 callgsubr
        </CharString>
        <CharString name="J">
          -531 -24 callgsubr
        </CharString>
        <CharString name="Jcircumflex">
          -537 1410 112 -88 88 151 341 hstemhm
          50 681 -419 65 callsubr
          hintmask 01001000
          270 -18 -67 callgsubr
          hintmask 10001000
          847 vlineto
          hintmask 01001000
          24 callgsubr
          hintmask 10001000
          46 callsubr
          hintmask 01001000
          24 callsubr
          hintmask 00110000
          -152 1691 -90 callsubr
        </CharString>
        <CharString name="K">
          165 0 85 -85 63 callsubr
          hstemhm
          284 169 hintmask 00000000
          hintmask 10011000
          109 hmoveto
          537 85 hlineto
          hintmask 00111000
          126 callsubr
          hintmask 10011000
          -2 callgsubr
          hintmask 00111000
          -1304 vlineto
          hintmask 01011000
          -4 callsubr
          endchar
        </CharString>
        <CharString name="Kcommaaccent">
          165 28 callsubr
          85 -85 107 1327 81 callsubr
          333 141 hintmask 11000010
          703 -208 -100 callsubr
          hintmask 00000000
          -594 208 rmoveto
          537 85 hlineto
          hintmask 00101100
          126 callsubr
          hintmask 00011100
          -2 callgsubr
          hintmask 00101100
          -1304 vlineto
          hintmask 00011100
          -4 callsubr
          endchar
        </CharString>
        <CharString name="L">
          -5 0 114 1320 88 hstem
          66 callsubr
          vstem
          15 callgsubr
          endchar
        </CharString>
        <CharString name="Lacute">
          -5 0 114 1320 88 145 -21 53 callsubr
          -85 454 hintmask 00101000
          424 1646 -96 callsubr
          hintmask 11010000
          -259 -1699 rmoveto
          -79 callsubr
          endchar
        </CharString>
        <CharString name="Lcaron">
          -5 0 114 931 633 -244 81 callsubr
          521 150 10 callsubr
          897 957 -58 callgsubr
        </CharString>
        <CharString name="Lcommaaccent">
          -5 28 callsubr
          114 1320 81 callsubr
          234 141 hintmask 11000100
          604 -208 -100 callsubr
          hintmask 00111000
          -495 208 rmoveto
          -79 callsubr
          endchar
        </CharString>
        <CharString name="Ldot">
          -5 0 114 616 -21 725 81 callsubr
          399 243 10 callsubr
          743 736 rmoveto
          -46 callsubr
          endchar
        </CharString>
        <CharString name="Lslash">
          -2 0 114 1320 88 hstem
          66 callsubr
          vstem
          109 hmoveto
          1065 hlineto
          75 426 -98 17 -115 -321 -583 -15 rlineto
          595 vlineto
          428 189 rlineto
          111 vlineto
          -428 -192 rlineto
          602 vlineto
          204 22 rlineto
          88 -544 48 callgsubr
          -672 vlineto
          -232 -103 rlineto
          -104 vlineto
          232 101 rlineto
          -526 vlineto
          -4 callsubr
          endchar
        </CharString>
        <CharString name="M">
          723 -47 callsubr
        </CharString>
        <CharString name="N">
          334 0 88 1323 60 callsubr
          147 callsubr
          115 hmoveto
          -56 callsubr
          hintmask 11011000
          1411 vlineto
          hintmask 10111000
          13 callsubr
          hintmask 11011000
          -15 callsubr
          hintmask 10111000
          14 callgsubr
          hintmask 11011000
          -9 callsubr
          endchar
        </CharString>
        <CharString name="NULL">
          -1298 endchar
        </CharString>
        <CharString name="Nacute">
          336 70 callsubr
          145 -21 125 callgsubr
          323 454 112 119 hintmask 00010100
          776 1646 -96 callsubr
          hintmask 00000000
          -605 -1699 -19 callsubr
        </CharString>
        <CharString name="Ncaron">
          336 70 callsubr
          170 319 125 callgsubr
          139 649 101 119 hintmask 00010100
          784 1692 -81 callsubr
          hintmask 00000000
          -421 -1967 -19 callsubr
        </CharString>
        <CharString name="Ncommaaccent">
          336 28 callsubr
          78 callsubr
          125 callgsubr
          446 141 302 119 hintmask 11000010
          760 -208 -100 callsubr
          hintmask 00000000
          -645 208 rmoveto
          -56 callsubr
          hintmask 00101101
          1411 vlineto
          hintmask 00110101
          13 callsubr
          hintmask 00101101
          -15 callsubr
          hintmask 00110101
          14 callgsubr
          hintmask 00101101
          -9 callsubr
          endchar
        </CharString>
        <CharString name="Ntilde">
          336 70 callsubr
          183 107 callsubr
          125 callgsubr
          19 808 62 119 hintmask 00011010
          501 1749 -82 callgsubr
          hintmask 00000000
          -301 -1796 rmoveto
          -56 callsubr
          hintmask 10100101
          1411 vlineto
          hintmask 11000101
          13 callsubr
          hintmask 10100101
          -15 callsubr
          hintmask 11000101
          14 callgsubr
          hintmask 10100101
          -9 callsubr
          endchar
        </CharString>
        <CharString name="O">
          17 callsubr
          hstem
          75 187 947 189 vstem
          -58 callsubr
          endchar
        </CharString>
        <CharString name="OE">
          805 -16 95 -79 110 624 101 584 103 -70 94 hstemhm
          75 184 776 166 405 104 hintmask 00000000
          hintmask 10110110
          730 -16 rmoveto
          110 3 103 27 92 52 rrcurveto
          hintmask 01110111
          -66 938 vlineto
          78 350 -97 27 -119 -257 -634 -20 rlineto
          637 vlineto
          380 -5 25 -177 rlineto
          104 452 -104 hlineto
          -25 -168 -380 -6 rlineto
          591 vlineto
          550 -10 55 -199 rlineto
          97 hlineto
          -29 307 rlineto
          -839 hlineto
          hintmask 01101110
          -31 vlineto
          -81 38 -92 19 -103 -2 rrcurveto
          -378 -8 -306 -304 -483 vvcurveto
          hintmask 10110110
          -458 241 -318 414 9 vhcurveto
          11 95 rmoveto
          -308 1 -174 303 369 vvcurveto
          hintmask 01101110
          450 193 250 294 134 90 -41 -62 65 vhcurveto
          -1152 vlineto
          hintmask 10110110
          -77 -73 -98 -41 -123 hhcurveto
          endchar
        </CharString>
        <CharString name="Oacute">
          17 callsubr
          129 -21 133 callgsubr
          343 454 150 189 hintmask 00101000
          661 1646 -96 callsubr
          hintmask 11010100
          117 -1722 -105 callsubr
          endchar
        </CharString>
        <CharString name="Obreve">
          17 callsubr
          117 135 133 callgsubr
          150 95 465 94 143 189 hintmask 00101100
          742 1655 -92 callsubr
          hintmask 11010010
          -20 -1678 -105 callsubr
          endchar
        </CharString>
        <CharString name="Ocircumflex">
          17 callsubr
          135 341 133 callgsubr
          138 681 128 -62 callsubr
          -266 1599 -90 callsubr
        </CharString>
        <CharString name="Odieresis">
          17 callsubr
          170 253 133 callgsubr
          123 41 callsubr
          110 189 hintmask 00000000
          hintmask 00101100
          974 -91 callgsubr
          hintmask 11010010
          234 -1731 -105 callsubr
          endchar
        </CharString>
        <CharString name="Ograve">
          17 callsubr
          129 -21 133 callgsubr
          186 454 307 189 hintmask 00101000
          846 1646 -71 callsubr
          hintmask 11010100
          -124 -1669 -105 callsubr
          endchar
        </CharString>
        <CharString name="Ohungarumlaut">
          17 callsubr
          139 -21 133 callgsubr
          121 882 -56 -62 callsubr
          -279 1582 -35 callgsubr
        </CharString>
        <CharString name="Omacron">
          17 callsubr
          221 126 133 callgsubr
          214 540 193 189 hintmask 00101000
          476 1759 26 callsubr
          hintmask 11010100
          246 -1908 -105 callsubr
          endchar
        </CharString>
        <CharString name="Omega">
          -53 callsubr
        </CharString>
        <CharString name="Omegagreek">
          -53 callsubr
        </CharString>
        <CharString name="Oslash">
          176 17 callsubr
          161 -21 hstem
          76 187 947 189 vstem
          -51 callgsubr
          endchar
        </CharString>
        <CharString name="Oslashacute">
          176 17 callsubr
          129 -21 53 -21 hstemhm
          76 187 304 454 189 189 hintmask 11011010
          -51 callgsubr
          hintmask 00100100
          83 1525 -69 callsubr
        </CharString>
        <CharString name="Otilde">
          17 callsubr
          167 107 callsubr
          133 callgsubr
          76 808 63 189 hintmask 00110100
          423 1749 -82 callgsubr
          hintmask 11001010
          384 -1819 -105 callsubr
          endchar
        </CharString>
        <CharString name="P">
          15 -50 callgsubr
        </CharString>
        <CharString name="Q">
          187 -413 143 247 97 -60 -21 1449 96 hstemhm
          81 187 947 189 hintmask 00000000
          hintmask 11011100
          728 -23 rmoveto
          hintmask 10111100
          45 1 45 5 43 10 rrcurveto
          -44 264 189 -362 354 hhcurveto
          11 hlineto
          70 66 42 18 19 hvcurveto
          -20 85 rlineto
          -1 -13 -12 -1 -19 hhcurveto
          -2 hlineto
          -267 -219 282 21 -298 hvcurveto
          248 110 172 265 367 -77 callgsubr
          vhcurveto
          hintmask 11011100
          -460 232 -319 415 7 vhcurveto
          12 97 rmoveto
          -302 -170 284 392 464 194 228 284 300 169 -275 -393 -464 -194 -236 -281 hvcurveto
          endchar
        </CharString>
        <CharString name="R">
          121 0 44 callgsubr
          -22 callsubr
          582 182 hintmask 00000000
          hintmask 10101110
          103 hmoveto
          554 88 hlineto
          hintmask 01101110
          28 callgsubr
          hintmask 10101110
          -48 callsubr
          hintmask 10110110
          70 callgsubr
          hintmask 01101110
          57 callsubr
          hintmask 10101110
          -41 callsubr
          endchar
        </CharString>
        <CharString name="Racute">
          122 0 44 callgsubr
          129 -21 -22 callsubr
          135 454 -7 182 -38 callgsubr
          hintmask 1010101010000000
          103 hmoveto
          554 88 hlineto
          hintmask 0110101010000000
          28 callgsubr
          hintmask 1010101010000000
          -48 callsubr
          hintmask 1011001010000000
          70 callgsubr
          hintmask 0110101010000000
          57 callsubr
          hintmask 1010101010000000
          -41 callsubr
          hintmask 0000010100000000
          191 867 -69 callsubr
        </CharString>
        <CharString name="Rcaron">
          122 0 44 callgsubr
          154 319 -22 callsubr
          -53 649 -14 182 hintmask 0000010100000000
          642 1692 -81 callsubr
          -38 callgsubr
          -291 -1967 rmoveto
          554 88 hlineto
          hintmask 1010101010000000
          28 callgsubr
          hintmask 0110101010000000
          -48 callsubr
          hintmask 1010101010000000
          70 callgsubr
          hintmask 1011001010000000
          57 callsubr
          hintmask 0110101010000000
          -41 callsubr
          endchar
        </CharString>
        <CharString name="Rcommaaccent">
          122 28 callsubr
          44 callgsubr
          -22 callsubr
          310 141 131 182 hintmask 1100000010000000
          674 -208 -100 callsubr
          -38 callgsubr
          -571 208 rmoveto
          554 88 hlineto
          hintmask 0010101101000000
          28 callgsubr
          hintmask 0001101101000000
          -48 callsubr
          hintmask 0010101101000000
          70 callgsubr
          hintmask 0010110101000000
          57 callsubr
          hintmask 0001101101000000
          -41 callsubr
          endchar
        </CharString>
        <CharString name="S">
          64 callsubr
          hstem
          154 161 624 177 vstem
          133 71 -42 callgsubr
        </CharString>
        <CharString name="Sacute">
          64 callsubr
          129 -21 138 callsubr
          188 454 -18 177 hintmask 11010100
          133 71 -103 callsubr
          hintmask 00101000
          409 1209 -69 callsubr
        </CharString>
        <CharString name="Scaron">
          64 callsubr
          154 319 138 callsubr
          -4 649 -21 177 hintmask 11010100
          133 71 -103 callsubr
          hintmask 00101000
          409 1255 -32 callsubr
        </CharString>
        <CharString name="Scircumflex">
          64 callsubr
          135 341 138 callsubr
          -16 681 -41 177 hintmask 11010100
          133 71 -103 callsubr
          hintmask 00101000
          217 1236 -90 callsubr
        </CharString>
        <CharString name="T">
          92 0 121 callsubr
          hstem
          604 177 vstem
          336 hmoveto
          737 88 hlineto
          -79 callgsubr
        </CharString>
        <CharString name="Tbar">
          130 0 97 582 112 632 98 hstem
          624 177 vstem
          356 hmoveto
          737 88 hlineto
          -292 19 rlineto
          572 258 112 -258 638 vlineto
          394 -11 57 -417 96 callsubr
          -23 521 rlineto
          -1248 hlineto
          -34 -521 rlineto
          112 hlineto
          66 417 389 11 rlineto
          -638 -256 -112 256 -572 vlineto
          -268 -19 rlineto
          endchar
        </CharString>
        <CharString name="Tcaron">
          92 0 121 callsubr
          171 319 hstemhm
          387 649 -432 177 hintmask 00110000
          635 1692 -81 callsubr
          hintmask 11001000
          -51 -1967 rmoveto
          737 88 hlineto
          -79 callgsubr
        </CharString>
        <CharString name="Thorn">
          3 0 87 -87 106 230 92 659 99 -20 -20 267 110 -87 87 hstemhm
          277 166 608 185 -38 callgsubr
          hintmask 1010101110000000
          103 hmoveto
          562 87 hlineto
          hintmask 0111010110000000
          -222 19 rlineto
          238 vlineto
          -7 64 77 -1 116 hhcurveto
          331 205 142 307 268 -175 133 -292 -113 -112 -12 -8 -101 hvcurveto
          247 vlineto
          hintmask 1010101110000000
          184 23 rlineto
          87 -521 -87 vlineto
          hintmask 0110110110000000
          171 -23 rlineto
          -1307 vlineto
          hintmask 1011001110000000
          -174 -19 rlineto
          340 350 rmoveto
          630 vlineto
          61 8 85 10 92 2 rrcurveto
          262 7 108 -118 -201 vvcurveto
          -258 -153 -89 -204 -76 -88 -2 11 -87 vhcurveto
          endchar
        </CharString>
        <CharString name="U">
          1 callgsubr
          hstem
          111 callgsubr
          808 129 vstem
          -74 callsubr
          endchar
        </CharString>
        <CharString name="Uacute">
          1 callgsubr
          145 -21 91 callgsubr
          277 454 77 129 hintmask 00101000
          714 1646 -96 callsubr
          hintmask 11010100
          -450 -1048 -102 callgsubr
          endchar
        </CharString>
        <CharString name="Ubreve">
          1 callgsubr
          133 135 91 callgsubr
          85 95 465 94 69 129 hintmask 00101100
          796 1655 -92 callsubr
          hintmask 11010010
          -588 -1004 -102 callgsubr
          endchar
        </CharString>
        <CharString name="Ucircumflex">
          1 callgsubr
          151 341 91 callgsubr
          74 681 53 129 hintmask 11010100
          -74 callsubr
          hintmask 00101000
          315 262 -90 callsubr
        </CharString>
        <CharString name="Udieresis">
          1 callgsubr
          186 253 91 callgsubr
          60 41 callsubr
          34 129 hintmask 00000000
          hintmask 00101100
          1030 -91 callgsubr
          hintmask 11010010
          -336 -1057 -102 callgsubr
          endchar
        </CharString>
        <CharString name="Ugrave">
          1 callgsubr
          145 -21 91 callgsubr
          128 454 226 129 hintmask 00101000
          907 1646 -71 callsubr
          hintmask 11010100
          -699 -995 -102 callgsubr
          endchar
        </CharString>
        <CharString name="Uhungarumlaut">
          1 callgsubr
          155 -21 91 callgsubr
          54 882 -128 129 hintmask 11010100
          -74 callsubr
          hintmask 00101000
          299 245 -35 callgsubr
        </CharString>
        <CharString name="Umacron">
          1 callgsubr
          237 126 91 callgsubr
          149 540 119 129 hintmask 00101000
          530 1759 26 callsubr
          hintmask 11010100
          -322 -1234 -102 callgsubr
          endchar
        </CharString>
        <CharString name="Uogonek">
          214 -510 115 379 99 1351 88 hstem
          111 callgsubr
          173 163 303 15 154 129 vstem
          554 -318 rmoveto
          -145 124 -47 126 98 callsubr
          -74 35 97 85 106 115 131 71 hvcurveto
          217 65 147 198 354 vvcurveto
          786 vlineto
          157 -32 callgsubr
          -455 -88 vlineto
          169 -24 rlineto
          -793 vlineto
          -348 -134 -186 -262 -240 -172 125 425 vhcurveto
          778 vlineto
          176 -32 callgsubr
          -501 -88 vlineto
          152 -23 rlineto
          -760 vlineto
          -452 173 -215 396 9 8 0 1 9 vhcurveto
          -134 -67 -115 -131 -105 vvcurveto
          endchar
        </CharString>
        <CharString name="Uring">
          1 callgsubr
          -6 80 335 83 91 callgsubr
          93 127 390 126 72 129 hintmask 11001001
          -74 callsubr
          hintmask 00110110
          585 105 -52 callsubr
        </CharString>
        <CharString name="Utilde">
          1 callgsubr
          183 107 callsubr
          91 callgsubr
          11 808 -11 129 hintmask 00110100
          477 1749 -82 callgsubr
          hintmask 11001010
          -184 -1145 -102 callgsubr
          endchar
        </CharString>
        <CharString name="V">
          53 5 -21 1450 88 hstem
          -30 1416 vstem
          633 -16 rmoveto
          135 hlineto
          488 1428 130 22 rlineto
          88 -431 -88 vlineto
          164 -23 -314 -983 -78 -283 -86 278 -363 989 189 22 rlineto
          88 -497 -88 vlineto
          127 -23 rlineto
          endchar
        </CharString>
        <CharString name="W">
          113 callsubr
          hstemhm
          -42 2107 hintmask 00000000
          hintmask 00111000
          543 -11 rmoveto
          149 hlineto
          326 1072 331 -1072 rlineto
          159 hlineto
          419 1422 138 -32 callgsubr
          -485 -88 vlineto
          215 -23 -274 -972 rlineto
          hintmask 10011000
          -67 -348 -80 348 -289 972 203 -32 callgsubr
          -532 -88 vlineto
          151 -23 56 -172 -246 -800 rlineto
          hintmask 01011000
          -80 -325 -67 325 -298 972 201 -32 callgsubr
          -515 -88 vlineto
          142 -24 rlineto
          endchar
        </CharString>
        <CharString name="Wacute">
          77 callsubr
          -1195 454 hintmask 00010100
          926 1646 -96 callsubr
          hintmask 00000000
          -327 -1710 -68 callgsubr
        </CharString>
        <CharString name="Wcircumflex">
          113 callsubr
          151 341 hstemhm
          -42 2107 -1400 681 hintmask 00000000
          hintmask 00110100
          543 -11 rmoveto
          149 hlineto
          326 1072 331 -1072 rlineto
          159 hlineto
          419 1422 138 -32 callgsubr
          -485 -88 vlineto
          215 -23 -274 -972 rlineto
          hintmask 10010100
          -67 -348 -80 348 -289 972 203 -32 callgsubr
          -532 -88 vlineto
          151 -23 56 -172 -246 -800 rlineto
          hintmask 01010100
          -80 -325 -67 325 -298 972 201 -32 callgsubr
          -515 -88 vlineto
          142 -24 rlineto
          hintmask 00001010
          633 263 -90 callsubr
        </CharString>
        <CharString name="Wdieresis">
          728 -11 102 -81 -21 1445 88 186 253 hstemhm
          -42 2107 -1414 41 callsubr
          hintmask 00000000
          hintmask 00010110
          1240 -91 callgsubr
          hintmask 00000000
          -211 -1719 -68 callgsubr
        </CharString>
        <CharString name="Wgrave">
          77 callsubr
          -1352 454 hintmask 00010100
          1111 1646 -71 callsubr
          hintmask 00000000
          -568 -1657 -68 callgsubr
        </CharString>
        <CharString name="X">
          -27 callsubr
        </CharString>
        <CharString name="Y">
          103 callsubr
          hstem
          582 172 vstem
          -91 callsubr
          endchar
        </CharString>
        <CharString name="Yacute">
          103 callsubr
          109 callsubr
          542 454 -414 172 hintmask 11001000
          -91 callsubr
          hintmask 00110000
          244 1558 -69 callsubr
        </CharString>
        <CharString name="Ycircumflex">
          103 callsubr
          151 341 hstemhm
          336 681 -435 172 hintmask 11001000
          -91 callsubr
          hintmask 00110000
          50 1585 -90 callsubr
        </CharString>
        <CharString name="Ydieresis">
          103 callsubr
          hstemhm
          582 172 vstemhm
          -91 callsubr
          557 1620 -107 callsubr
          endchar
        </CharString>
        <CharString name="Ygrave">
          103 callsubr
          109 callsubr
          385 454 -257 172 hintmask 11001000
          -91 callsubr
          hintmask 00110000
          429 1558 12 callgsubr
        </CharString>
        <CharString name="Z">
          40 56 callsubr
          hstemhm
          87 1162 hintmask 00000000
          hintmask 11101000
          87 80 -34 callgsubr
          hintmask 11011000
          82 callsubr
          hintmask 11101000
          -31 callsubr
          endchar
        </CharString>
        <CharString name="Zacute">
          42 56 callsubr
          139 -21 hstemhm
          88 1162 -679 454 hintmask 00000000
          hintmask 11100100
          88 80 -34 callgsubr
          hintmask 11010100
          82 callsubr
          hintmask 11100100
          -31 callsubr
          hintmask 00001010
          -277 360 -69 callsubr
        </CharString>
        <CharString name="Zcaron">
          42 56 callsubr
          164 319 hstemhm
          88 1162 -867 649 hintmask 00001010
          631 1692 -81 callsubr
          hintmask 00000000
          -295 -1887 -34 callgsubr
          hintmask 11100100
          82 callsubr
          hintmask 11010100
          -31 callsubr
          endchar
        </CharString>
        <CharString name="Zdotaccent">
          42 56 callsubr
          185 252 hstemhm
          88 1162 -656 228 hintmask 00001010
          697 1713 -89 callsubr
          hintmask 00000000
          -609 -1633 -34 callgsubr
          hintmask 11100100
          82 callsubr
          hintmask 11010100
          -31 callsubr
          endchar
        </CharString>
        <CharString name="a">
          -87 callgsubr
          endchar
        </CharString>
        <CharString name="aacute">
          -28 callgsubr
          549 -21 92 callsubr
          137 448 -80 -99 callgsubr
          hintmask 00001010
          195 1030 -25 callsubr
        </CharString>
        <CharString name="abreve">
          -28 callgsubr
          204 142 92 callsubr
          -85 95 466 93 -64 163 -38 callgsubr
          hintmask 1011010010000000
          -78 callgsubr
          hintmask 0111010010000000
          -102 callsubr
          hintmask 1011010010000000
          -99 callsubr
          hintmask 0000101100000000
          245 1045 -94 callsubr
        </CharString>
        <CharString name="acircumflex">
          -28 callgsubr
          504 -21 92 callsubr
          -117 715 -93 -99 callgsubr
          hintmask 00000000
          -52 1014 -39 callsubr
          hintmask 00001010
          -46 callgsubr
          endchar
        </CharString>
        <CharString name="acute">
          -617 1709 -21 hstem
          231 448 vstem
          289 1349 -25 callsubr
        </CharString>
        <CharString name="acute.cap">
          -238 1667 -21 hstem
          546 454 vstem
          602 1646 -69 callsubr
        </CharString>
        <CharString name="adieresis">
          -87 callgsubr
          hintmask 00000000
          461 1053 -80 callsubr
        </CharString>
        <CharString name="ae">
          481 30 callsubr
          hstemhm
          97 93 callgsubr
          97 -76 callgsubr
        </CharString>
        <CharString name="aeacute">
          484 30 callsubr
          541 -21 92 callsubr
          493 179 -139 448 250 179 hintmask 0000001001000000
          877 1349 -94 callgsubr
          -38 callgsubr
          -715 -1107 rmoveto
          -223 162 -98 181 215 140 137 89 63 vhcurveto
          -141 81 138 -85 190 hhcurveto
          156 165 66 80 78 hvcurveto
          -33 75 rlineto
          -54 -63 -135 96 callgsubr
          -196 118 callgsubr
          hintmask 1001010110100000
          -1 8 0 9 8 vvcurveto
          729 hlineto
          10 45 1 57 78 vvcurveto
          265 -9 -142 141 -242 hhcurveto
          -155 -134 -65 -110 -94 hvcurveto
          hintmask 1010010110100000
          116 -47 -105 51 -186 hhcurveto
          -184 -229 -112 -47 -49 hvcurveto
          43 -85 rlineto
          43 80 144 73 157 hhcurveto
          194 41 -74 -205 hvcurveto
          -71 vlineto
          hintmask 1001100110100000
          -326 -6 -349 -93 -285 vvcurveto
          hintmask 1001010110100000
          854 380 rmoveto
          285 18 123 99 163 hhcurveto
          182 72 -126 -167 1 hvcurveto
          -30 -2 -32 -2 -29 vhcurveto
          -1227 -359 rmoveto
          hintmask 0110010110100000
          155 164 118 329 2 vhcurveto
          -20 vlineto
          -108 16 -98 32 -84 vhcurveto
          -83 -50 -126 -102 -144 hhcurveto
          hintmask 0101010110100000
          -124 -97 56 164 hvcurveto
          endchar
        </CharString>
        <CharString name="afii10017">
          -39 callgsubr
          48 callsubr
          hintmask 00000000
          hintmask 11011000
          -103 callgsubr
          hintmask 11101000
          -43 callsubr
          endchar
        </CharString>
        <CharString name="afii10018">
          14 -16 100 -84 97 717 112 497 98 -87 88 123 callgsubr
          608 177 hintmask 00000000
          hintmask 01110110
          67 hmoveto
          307 hlineto
          85 186 -16 49 hhcurveto
          hintmask 10110110
          319 223 168 328 280 -175 166 -340 -101 -123 -14 -10 -46 hvcurveto
          528 vlineto
          537 -13 63 -266 rlineto
          116 hlineto
          -21 371 rlineto
          -1076 hlineto
          hintmask 01101110
          -88 vlineto
          214 -23 rlineto
          -1305 vlineto
          -217 -18 rlineto
          hintmask 10110110
          384 15 rmoveto
          695 vlineto
          8 41 96 8 88 hhcurveto
          238 145 -108 -240 -256 -144 -126 -239 -118 -49 10 9 -58 hvcurveto
          endchar
        </CharString>
        <CharString name="afii10019">
          79 -70 callsubr
        </CharString>
        <CharString name="afii10020">
          -141 118 callsubr
          141 callgsubr
          hintmask 10101000
          57 hmoveto
          769 85 hlineto
          hintmask 01101000
          -370 24 rlineto
          1321 12 callsubr
          hintmask 01011000
          87 callgsubr
          hintmask 10101000
          149 callgsubr
        </CharString>
        <CharString name="afii10021">
          173 0 109 1307 106 -89 89 hstemhm
          480 112 433 163 20 175 hintmask 00000000
          hintmask 11011000
          64 106 rmoveto
          -3 3 rlineto
          -13 -25 -460 -5 vvcurveto
          111 hlineto
          10 41 68 324 2 4 rrcurveto
          hintmask 11011100
          961 hlineto
          2 -14 16 -313 2 137 callsubr
          50 473 3 vvcurveto
          hintmask 11011000
          -181 1302 hlineto
          hintmask 10111100
          194 22 rlineto
          hintmask 11011100
          89 -1112 vlineto
          hintmask 10111000
          -89 vlineto
          hintmask 11011000
          209 -22 rlineto
          -142 vlineto
          -731 -204 -353 -63 -76 vhcurveto
          -149 hlineto
          304 hmoveto
          65 90 163 414 -4 644 rrcurveto
          159 434 vlineto
          -1 -1307 rlineto
          endchar
        </CharString>
        <CharString name="afii10022">
          -16 callgsubr
          -87 88 -22 callsubr
          402 104 148 callgsubr
          103 hmoveto
          -101 callgsubr
          hintmask 11011100
          -61 callgsubr
        </CharString>
        <CharString name="afii10023">
          -16 callgsubr
          187 253 -22 callsubr
          -106 41 callsubr
          -206 104 hintmask 00000000
          hintmask 00010110
          930 -91 callgsubr
          hintmask 00000000
          -341 -1708 rmoveto
          -101 callgsubr
          hintmask 11101001
          -61 callgsubr
        </CharString>
        <CharString name="afii10024">
          87 callsubr
          hstem
          976 161 vstem
          20 hmoveto
          -84 callsubr
        </CharString>
        <CharString name="afii10025">
          -59 callgsubr
          endchar
        </CharString>
        <CharString name="afii10026">
          -45 callsubr
          endchar
        </CharString>
        <CharString name="afii10027">
          37 callsubr
          146 84 hstemhm
          286 164 43 130 callgsubr
          23 165 hintmask 00010110
          869 1668 -82 callsubr
          hintmask 00000000
          -759 -1668 rmoveto
          538 88 hlineto
          hintmask 10101001
          -18 callsubr
          hintmask 01101001
          45 callsubr
          hintmask 10101001
          -72 callsubr
          hintmask 01101001
          92 callgsubr
          endchar
        </CharString>
        <CharString name="afii10028">
          121 116 callsubr
          637 88 122 callsubr
          hintmask 00000000
          hintmask 01111000
          113 hmoveto
          511 hlineto
          hintmask 10111000
          87 vlineto
          hintmask 01111000
          -42 callsubr
          614 hlineto
          175 -32 callgsubr
          -507 -88 vlineto
          170 25 callgsubr
          hintmask 10111000
          -170 -18 rlineto
          endchar
        </CharString>
        <CharString name="afii10029">
          184 -11 158 -147 88 1325 89 callsubr
          486 112 433 164 hintmask 00000000
          hintmask 01101100
          60 hmoveto
          hintmask 10101100
          10 callgsubr
          vlineto
          hintmask 01101100
          -1 -1305 -209 -20 rlineto
          -88 578 88 vlineto
          -204 19 rlineto
          1304 vlineto
          hintmask 01011100
          192 23 rlineto
          hintmask 01101100
          88 -1129 vlineto
          hintmask 01011100
          -88 vlineto
          hintmask 10101100
          227 -23 rlineto
          -186 19 callgsubr
          endchar
        </CharString>
        <CharString name="afii10030">
          736 -47 callsubr
        </CharString>
        <CharString name="afii10031">
          390 0 88 640 52 callgsubr
          vstem
          -57 callgsubr
          endchar
        </CharString>
        <CharString name="afii10032">
          17 callsubr
          hstem
          75 187 947 189 vstem
          -58 callsubr
          endchar
        </CharString>
        <CharString name="afii10033">
          316 0 88 1325 89 callsubr
          286 167 710 138 callgsubr
          hintmask 11011000
          29 callsubr
          hintmask 10111000
          1300 vlineto
          180 26 rlineto
          hintmask 11011000
          88 -1402 vlineto
          hintmask 10111000
          -88 vlineto
          179 -86 callsubr
          -170 -19 rlineto
          endchar
        </CharString>
        <CharString name="afii10034">
          17 -50 callgsubr
        </CharString>
        <CharString name="afii10035">
          64 callgsubr
          hstem
          74 193 vstem
          74 768 -98 callsubr
          endchar
        </CharString>
        <CharString name="afii10036">
          157 0 121 callsubr
          hstem
          637 177 vstem
          369 hmoveto
          737 88 hlineto
          -79 callgsubr
        </CharString>
        <CharString name="afii10037">
          62 callgsubr
          hstem
          -12 1315 vstem
          262 11 -88 callgsubr
          endchar
        </CharString>
        <CharString name="afii10038">
          197 -42 85 1431 88 hstem
          38 191 440 157 437 194 vstem
          464 -42 rmoveto
          566 85 hlineto
          -204 27 rlineto
          166 vlineto
          390 29 241 228 284 vvcurveto
          252 -104 256 -527 18 vhcurveto
          147 vlineto
          203 24 rlineto
          88 -565 -88 vlineto
          205 -24 rlineto
          -149 vlineto
          -392 -25 -239 -215 -280 vvcurveto
          -256 109 -272 522 -19 vhcurveto
          -163 vlineto
          -205 -24 rlineto
          205 269 rmoveto
          -379 26 -61 247 203 vvcurveto
          213 83 199 357 22 vhcurveto
          157 -910 rmoveto
          909 vlineto
          376 -24 61 -221 -206 vvcurveto
          -227 -85 -206 -352 -25 vhcurveto
          endchar
        </CharString>
        <CharString name="afii10039">
          -27 callsubr
        </CharString>
        <CharString name="afii10040">
          319 0 -7 callsubr
          hstem
          286 165 696 166 78 93 vstem
          87 hmoveto
          1286 hlineto
          2 -14 15 -313 1 137 callsubr
          52 473 3 vvcurveto
          -242 1302 hlineto
          171 -32 callgsubr
          -496 -88 vlineto
          159 -23 rlineto
          -1304 -696 1305 vlineto
          207 22 rlineto
          88 -549 -88 vlineto
          177 -23 rlineto
          -1301 vlineto
          -199 -25 rlineto
          endchar
        </CharString>
        <CharString name="afii10041">
          82 0 87 -87 106 490 120 695 77 callgsubr
          136 166 625 167 hintmask 00000000
          hintmask 10101110
          714 hmoveto
          569 87 hlineto
          hintmask 01110110
          -189 19 -3 callgsubr
          hintmask 10101110
          69 callsubr
          hintmask 10110110
          0 callgsubr
          hintmask 01101110
          -29 callgsubr
          -575 vlineto
          hintmask 10101110
          -213 -19 rlineto
          endchar
        </CharString>
        <CharString name="afii10042">
          900 0 -7 callsubr
          hstem
          286 165 572 161 563 165 vstem
          84 hmoveto
          2028 88 hlineto
          -200 20 rlineto
          1303 vlineto
          21 callgsubr
          1303 vlineto
          192 24 rlineto
          88 -532 -88 vlineto
          175 -86 callsubr
          -202 -19 rlineto
          endchar
        </CharString>
        <CharString name="afii10043">
          919 0 -7 callsubr
          hstem
          286 165 572 161 563 165 82 91 vstem
          84 hmoveto
          1893 hlineto
          2 -14 14 -313 1 137 callsubr
          54 471 4 vvcurveto
          -248 1303 hlineto
          21 callgsubr
          1305 vlineto
          192 22 rlineto
          88 -532 -88 vlineto
          175 -86 callsubr
          -202 -19 rlineto
          endchar
        </CharString>
        <CharString name="afii10044">
          359 -16 94 -78 85 -85 108 713 105 495 100 -87 88 hstemhm
          632 173 606 177 hintmask 00000000
          hintmask 01011011
          366 hmoveto
          361 hlineto
          85 186 -16 49 hhcurveto
          hintmask 10010111
          320 221 168 328 280 -180 166 -334 hvcurveto
          -269 485 hlineto
          187 23 rlineto
          hintmask 00111011
          88 -888 vlineto
          -25 -487 rlineto
          117 hlineto
          55 378 381 17 rlineto
          -1322 vlineto
          hintmask 01011011
          -266 -23 rlineto
          hintmask 10011011
          439 11 rmoveto
          725 225 vlineto
          237 144 -117 -238 -256 -142 -132 -239 -117 -50 9 9 -58 hvcurveto
          endchar
        </CharString>
        <CharString name="afii10045">
          678 75 callgsubr
          hstemhm
          284 166 608 177 283 170 -38 callgsubr
          hintmask 0000101000100000
          1318 hmoveto
          569 hlineto
          hintmask 0100001000100000
          87 vlineto
          hintmask 0000101000100000
          -97 callsubr
          hintmask 0100001000100000
          -200 -19 rlineto
          -38 callgsubr
          -1211 -88 rmoveto
          80 callgsubr
          hintmask 0010010111000000
          -21 callgsubr
          hintmask 1000010111000000
          -1308 vlineto
          hintmask 0001010111000000
          -177 -18 rlineto
          hintmask 0010010111000000
          -35 callsubr
        </CharString>
        <CharString name="afii10046">
          6 146 callgsubr
          512 84 hstemhm
          284 166 608 177 hintmask 00000000
          hintmask 01011110
          107 hmoveto
          80 callgsubr
          hintmask 10011110
          -21 callgsubr
          hintmask 00111110
          -1308 vlineto
          hintmask 01011110
          -177 -18 rlineto
          hintmask 10011110
          -35 callsubr
        </CharString>
        <CharString name="afii10047">
          44 -23 104 632 132 592 101 hstem
          1072 195 vstem
          142 -26 callgsubr
          endchar
        </CharString>
        <CharString name="afii10048">
          872 -18 103 -85 88 -88 108 626 103 574 4 callgsubr
          -86 102 123 callgsubr
          348 183 928 184 -38 callgsubr
          hintmask 0101001111000000
          110 hmoveto
          520 88 hlineto
          hintmask 0011001111000000
          -179 20 rlineto
          626 348 vlineto
          hintmask 1001001111000000
          -449 -3 241 -303 404 hhcurveto
          351 293 292 503 9 hvcurveto
          441 7 -237 320 -392 hhcurveto
          -322 -303 -256 -445 -43 hvcurveto
          -355 hlineto
          hintmask 1001100111000000
          574 vlineto
          hintmask 1001010111000000
          172 -32 callgsubr
          -505 -88 vlineto
          hintmask 0011100111000000
          168 25 callgsubr
          hintmask 0101001111000000
          -174 -20 rlineto
          hintmask 1001001111000000
          872 656 rmoveto
          480 205 212 272 292 159 -290 -370 -467 -177 -224 -279 -307 -165 294 365 vhcurveto
          endchar
        </CharString>
        <CharString name="afii10049">
          121 0 85 586 103 637 4 callgsubr
          -85 101 hstemhm
          188 175 606 138 callgsubr
          hintmask 11001110
          -10 hmoveto
          233 hlineto
          105 165 563 108 148 hvcurveto
          59 227 2 1 42 hvcurveto
          -568 vlineto
          -204 -21 1 -85 rlineto
          568 85 hlineto
          -199 22 rlineto
          hintmask 11100110
          1304 vlineto
          hintmask 11010110
          179 -32 callgsubr
          -284 vlineto
          -100 -85 16 -98 hhcurveto
          hintmask 11001110
          -294 -265 -64 -375 -214 116 -145 181 -51 hvcurveto
          -142 -96 -171 -466 -101 -19 -81 -23 rcurveline
          730 689 rmoveto
          -227 -130 123 224 253 147 63 210 134 45 -14 -2 70 hvcurveto
          -640 vlineto
          -4 -42 -79 -3 -128 hhcurveto
          endchar
        </CharString>
        <CharString name="afii10050">
          -181 118 callsubr
          97 -86 87 hstemhm
          286 172 hintmask 00000000
          hintmask 10101000
          55 hmoveto
          768 85 hlineto
          hintmask 01101000
          -365 24 rlineto
          1320 vlineto
          617 -9 20 461 rlineto
          -120 hlineto
          -55 -359 rlineto
          -861 hlineto
          hintmask 01011000
          -87 vlineto
          227 -25 rlineto
          -1301 vlineto
          hintmask 10101000
          -231 -24 rlineto
          endchar
        </CharString>
        <CharString name="afii10051">
          395 -405 110 295 98 662 112 549 100 hstemhm
          629 173 220 368 -153 150 36 65 callsubr
          hintmask 11111101
          358 hmoveto
          660 88 hlineto
          -216 19 rlineto
          592 1 vlineto
          45 106 89 16 110 hhcurveto
          239 114 callgsubr
          -37 2 3 -20 143 callgsubr
          305 154 134 callsubr
          -81 -182 145 callgsubr
          hintmask 11111011
          435 -17 37 -370 rlineto
          hintmask 11111101
          110 hlineto
          6 479 rlineto
          -1294 hlineto
          -26 -479 rlineto
          114 hlineto
          55 370 390 17 rlineto
          -1322 vlineto
          -271 -20 rlineto
          endchar
        </CharString>
        <CharString name="afii10052">
          -141 118 callsubr
          98 -87 87 109 callsubr
          284 172 -18 454 hintmask 00001010
          494 1646 -96 callsubr
          hintmask 00000000
          -381 -1699 rmoveto
          769 85 hlineto
          hintmask 10100100
          -370 24 rlineto
          1321 12 callsubr
          hintmask 01100100
          87 callgsubr
          hintmask 01010100
          149 callgsubr
        </CharString>
        <CharString name="afii10053">
          32 -23 102 634 132 590 103 hstem
          75 202 vstem
          75 763 rmoveto
          -470 263 -316 433 237 77 73 6 107 vhcurveto
          54 289 -104 10 -85 -204 rlineto
          -43 -56 -65 -29 -161 hhcurveto
          -316 -165 300 343 -17 hvcurveto
          707 -18 rlineto
          151 vlineto
          -707 -19 rlineto
          379 17 201 220 268 hhcurveto
          171 77 -29 -32 48 hvcurveto
          49 -237 rlineto
          107 hlineto
          12 334 rlineto
          13 -80 -165 54 -191 hhcurveto
          -403 -313 -324 -451 hvcurveto
          endchar
        </CharString>
        <CharString name="afii10054">
          64 callsubr
          hstem
          154 161 624 177 vstem
          133 71 -42 callgsubr
        </CharString>
        <CharString name="afii10055">
          -484 -1 callgsubr
        </CharString>
        <CharString name="afii10057">
          -529 -24 callgsubr
        </CharString>
        <CharString name="afii10058">
          749 -16 94 -89 158 -147 88 -88 108 644 113 548 89 callsubr
          486 112 433 164 608 177 -38 callgsubr
          hintmask 0010110111000000
          60 hmoveto
          hintmask 0100110111000000
          10 callgsubr
          vlineto
          hintmask 0001110111000000
          -1 -1305 rlineto
          hintmask 0010110111000000
          -209 -20 rlineto
          -88 297 vlineto
          85 186 -16 49 hhcurveto
          hintmask 1000101111000000
          319 222 158 306 262 -181 155 -334 -95 -129 -14 -9 -44 hvcurveto
          -1 -2 rlineto
          571 vlineto
          193 23 rlineto
          hintmask 1000110111000000
          88 -192 vlineto
          -1 -2 rlineto
          2 -900 vlineto
          hintmask 1000101111000000
          -88 vlineto
          hintmask 0100110111000000
          190 -21 rlineto
          -188 19 callgsubr
          hintmask 1000110111000000
          1147 -60 rmoveto
          641 1 vlineto
          9 39 103 6 83 hhcurveto
          237 144 -101 -216 -236 -143 -121 -238 -118 -50 9 9 -58 hvcurveto
          endchar
        </CharString>
        <CharString name="afii10059">
          892 -21 105 -84 88 -88 107 621 108 -83 114 547 108 -88 88 -84 84 123 callgsubr
          719 167 607 177 -38 callgsubr
          hintmask 0101000111100000
          104 hmoveto
          542 88 hlineto
          hintmask 0011000111100000
          -195 19 rlineto
          621 719 -621 vlineto
          hintmask 0101000111100000
          -167 -19 rlineto
          -88 211 vlineto
          3 1 -1 -1 rlineto
          hintmask 1000110011100000
          85 209 -21 77 hhcurveto
          320 214 142 328 263 -182 155 -333 hvcurveto
          -269 547 hlineto
          hintmask 1001000111100000
          180 24 rlineto
          84 -521 -84 vlineto
          hintmask 1001010011100000
          174 -24 rlineto
          -578 -719 575 vlineto
          hintmask 1001001011100000
          178 23 rlineto
          hintmask 1001000111100000
          88 -513 vlineto
          hintmask 1001001011100000
          -88 vlineto
          hintmask 0011010011100000
          168 -86 callsubr
          hintmask 0101000111100000
          -180 -19 rlineto
          hintmask 1000100111100000
          1233 20 rmoveto
          645 224 vlineto
          238 145 -101 -215 -236 -143 -117 -239 -93 -74 19 5 -58 hvcurveto
          endchar
        </CharString>
        <CharString name="afii10060">
          439 0 98 656 118 548 101 hstemhm
          640 174 442 151 8 138 callgsubr
          hintmask 11110100
          369 hmoveto
          651 88 hlineto
          -206 19 rlineto
          571 vlineto
          39 59 105 37 167 hhcurveto
          211 59 -127 -269 hvcurveto
          -251 vlineto
          -155 -19 rlineto
          -88 485 88 vlineto
          -164 19 rlineto
          312 vlineto
          337 -116 116 -294 -103 -174 -43 -53 -80 vhcurveto
          652 vlineto
          hintmask 11111000
          442 -15 39 -371 rlineto
          111 hlineto
          3 480 rlineto
          -1304 hlineto
          -26 -479 rlineto
          113 hlineto
          57 370 391 15 rlineto
          -1320 vlineto
          -271 -20 rlineto
          endchar
        </CharString>
        <CharString name="afii10061">
          121 116 callsubr
          637 88 145 -21 122 callsubr
          195 454 hintmask 00001010
          696 1646 -96 callsubr
          hintmask 00000000
          -527 -1699 rmoveto
          511 hlineto
          hintmask 01110100
          87 vlineto
          hintmask 10110100
          -42 callsubr
          614 hlineto
          175 -32 callgsubr
          -507 -88 vlineto
          170 25 callgsubr
          hintmask 01110100
          -170 -18 rlineto
          endchar
        </CharString>
        <CharString name="afii10062">
          62 callgsubr
          146 84 hstemhm
          -12 1315 -1016 130 callgsubr
          hintmask 00101100
          663 1668 -82 callsubr
          hintmask 11010000
          -401 -1657 -88 callgsubr
          endchar
        </CharString>
        <CharString name="afii10065">
          -87 callgsubr
          endchar
        </CharString>
        <CharString name="afii10066">
          -135 -16 92 968 118 hstem
          75 188 641 183 vstem
          583 -16 rmoveto
          320 184 222 436 318 -139 202 -307 -143 -181 -82 -106 -92 hvcurveto
          13 233 88 112 65 52 88 69 232 29 185 17 69 7 21 34 14 77 32 161 rcurveline
          -91 hlineto
          -32 -90 -16 -46 -49 -1 -110 -15 rlinecurve
          -120 -17 -189 -45 -100 -96 rrcurveto
          -122 -118 -128 -177 -370 vvcurveto
          -582 223 -224 285 vhcurveto
          3 92 rmoveto
          -217 -106 238 566 hvcurveto
          55 30 139 109 172 hhcurveto
          211 89 -119 -289 -356 -83 -204 -235 hvcurveto
          endchar
        </CharString>
        <CharString name="afii10067">
          -20 -8 105 -76 -21 554 95 393 94 -94 103 hstemhm
          260 160 499 171 -88 176 hintmask 00000000
          hintmask 01101101
          112 hmoveto
          191 hlineto
          60 174 -8 94 hhcurveto
          hintmask 10101101
          394 153 133 224 133 -104 122 -212 15 hvcurveto
          hintmask 10101110
          134 39 94 85 136 vvcurveto
          167 -105 99 -346 vhcurveto
          hintmask 01110101
          -108 -134 -9 -71 hhcurveto
          -210 -88 hlineto
          144 -31 rlineto
          -905 vlineto
          -148 -24 rlineto
          308 561 rmoveto
          hintmask 10101110
          393 208 vlineto
          228 63 -67 -104 -128 -78 -94 -195 hvcurveto
          -226 -537 rmoveto
          442 265 vlineto
          hintmask 10101101
          217 100 -74 -159 -167 -100 -57 -280 hvcurveto
          hintmask 10101110
          -52 -117 5 10 -33 hvcurveto
          endchar
        </CharString>
        <CharString name="afii10068">
          -283 0 96 932 107 -87 88 hstemhm
          109 callgsubr
          hintmask 00000000
          hintmask 11010000
          95 hmoveto
          115 callgsubr
          929 85 callsubr
          hintmask 10110000
          51 callgsubr
        </CharString>
        <CharString name="afii10069">
          -55 0 102 926 108 -88 88 hstemhm
          358 100 364 161 hintmask 00000000
          hintmask 11011000
          23 102 rmoveto
          -1 -12 -17 -454 -5 vvcurveto
          113 hlineto
          10 44 60 321 1 4 rrcurveto
          792 hlineto
          2 -4 14 117 callgsubr
          2 53 466 3 vvcurveto
          -4 -1 rlineto
          1 -176 vlineto
          hintmask 10111000
          916 vlineto
          185 30 rlineto
          hintmask 11011000
          88 -997 vlineto
          hintmask 10111000
          -88 vlineto
          187 -30 rlineto
          -41 vlineto
          -671 -145 -178 -73 -26 vhcurveto
          164 hmoveto
          70 94 85 318 -1 374 rrcurveto
          hintmask 11011000
          140 364 -926 vlineto
          endchar
        </CharString>
        <CharString name="afii10070">
          -36 callgsubr
          hstem
          96 179 560 178 vstem
          96 574 -95 callsubr
        </CharString>
        <CharString name="afii10071">
          -36 callgsubr
          204 252 132 callgsubr
          -22 32 callgsubr
          -94 178 hintmask 00000000
          hintmask 00010110
          804 1372 -106 callgsubr
          hintmask 11101001
          -260 -798 -95 callsubr
        </CharString>
        <CharString name="afii10072">
          88 callgsubr
          hstem
          852 159 vstem
          5 hmoveto
          -83 callgsubr
        </CharString>
        <CharString name="afii10073">
          144 callgsubr
          hstemhm
          129 102 558 176 -123 189 120 callsubr
          114 60 5 callsubr
          hintmask 11111000
          -49 callsubr
          hintmask 11110100
          6 callsubr
        </CharString>
        <CharString name="afii10074">
          -45 callgsubr
          endchar
        </CharString>
        <CharString name="afii10075">
          37 callgsubr
          198 98 hstemhm
          259 161 -65 105 callgsubr
          -50 163 -38 callgsubr
          hintmask 1001010010000000
          97 hmoveto
          459 hlineto
          hintmask 0101010010000000
          -2 89 -17 callgsubr
          hintmask 1001010010000000
          -170 -17 rlineto
          -88 494 88 vlineto
          hintmask 0101010010000000
          -161 17 rlineto
          912 vlineto
          -65 callgsubr
          hintmask 0110010010000000
          158 -32 rlineto
          -912 vlineto
          hintmask 1001010010000000
          -162 -17 rlineto
          hintmask 0000101100000000
          635 1246 -85 callsubr
          endchar
        </CharString>
        <CharString name="afii10076">
          101 callgsubr
          hstem
          260 157 vstem
          97 hmoveto
          19 callsubr
          164 88 hlineto
          -76 21 -41 callgsubr
        </CharString>
        <CharString name="afii10077">
          -36 -12 166 -154 96 931 69 callgsubr
          hintmask 00000000
          hintmask 01101100
          31 hmoveto
          hintmask 10101100
          -5 callsubr
          378 -922 vlineto
          hintmask 01011100
          -162 -17 rlineto
          -88 496 88 vlineto
          -173 16 rlineto
          910 vlineto
          178 32 rlineto
          hintmask 01101100
          90 -1005 vlineto
          hintmask 10011100
          36 callsubr
          3 6 -29 hvcurveto
          endchar
        </CharString>
        <CharString name="afii10078">
          454 0 95 937 104 -93 93 -88 88 hstemhm
          31 1694 hintmask 00000000
          hintmask 10011000
          31 hmoveto
          461 88 hlineto
          -177 15 79 591 rlineto
          hintmask 11001000
          38 338 122 -334 262 -633 rlineto
          85 hlineto
          250 634 rlineto
          hintmask 10101000
          116 344 46 -349 83 -589 -163 -17 rlineto
          -88 492 88 vlineto
          -165 16 rlineto
          hintmask 10011000
          -150 914 211 30 rlineto
          88 -430 vlineto
          -227 -594 -89 -279 -101 279 -236 594 rlineto
          -402 -88 hlineto
          194 -30 -137 -914 -162 -16 rlineto
          endchar
        </CharString>
        <CharString name="afii10079">
          162 0 96 441 107 404 88 hstem
          31 callgsubr
          vstem
          52 callsubr
          -432 vlineto
          -191 -17 rlineto
          -88 515 88 vlineto
          -163 16 rlineto
          913 vlineto
          16 callgsubr
        </CharString>
        <CharString name="afii10080">
          -103 -23 107 977 107 hstem
          81 186 659 187 vstem
          81 -73 callgsubr
          endchar
        </CharString>
        <CharString name="afii10081">
          98 0 88 941 107 -88 88 hstemhm
          109 callgsubr
          555 160 hintmask 00000000
          hintmask 11011000
          34 callgsubr
          hintmask 10111000
          912 vlineto
          144 30 rlineto
          hintmask 11011000
          88 -1171 vlineto
          hintmask 10111000
          100 callsubr
        </CharString>
        <CharString name="afii10082">
          -18 -54 callsubr
        </CharString>
        <CharString name="afii10083">
          -256 82 callgsubr
          hstem
          69 177 vstem
          -21 callsubr
          endchar
        </CharString>
        <CharString name="afii10084">
          -42 0 97 932 145 callsubr
          730 88 hlineto
          -284 19 rlineto
          926 vlineto
          22 callgsubr
        </CharString>
        <CharString name="afii10085">
          -130 -40 callsubr
          hstemhm
          2 1153 147 callsubr
          143 -344 rmoveto
          hintmask 01111000
          -152 vlineto
          hintmask 10111000
          -105 callgsubr
          endchar
        </CharString>
        <CharString name="afii10086">
          493 -499 89 387 91 -91 120 951 120 -91 91 hstemhm
          96 181 360 341 -166 350 -349 164 537 180 -38 callgsubr
          hintmask 1100110011000000
          531 -23 rmoveto
          149 85 45 48 54 hvcurveto
          -6 -217 rlineto
          -238 vlineto
          -177 -25 rlineto
          -89 vlineto
          hintmask 1100110101000000
          526 89 hlineto
          hintmask 1100111001000000
          -184 24 rlineto
          239 vlineto
          -6 171 rlineto
          -21 42 72 -26 80 hhcurveto
          317 211 276 349 411 -224 155 -211 hvcurveto
          hintmask 1100110011000000
          -150 -84 -45 -49 -54 hvcurveto
          6 218 rlineto
          358 vlineto
          -38 28 rlineto
          -1 hlineto
          hintmask 1100111001000000
          140 callgsubr
          -76 vlineto
          hintmask 1100110101000000
          175 -18 rlineto
          -256 vlineto
          6 -171 rlineto
          21 -41 -73 26 -80 hhcurveto
          -317 -211 -276 -349 hvcurveto
          hintmask 1100110011000000
          -411 224 -155 211 vhcurveto
          hintmask 1010110011000000
          69 120 rmoveto
          -170 -154 124 350 1 hvcurveto
          348 152 158 188 104 71 -52 -24 21 vhcurveto
          -845 vlineto
          -25 -34 -79 -34 -100 hhcurveto
          hintmask 1101010011000000
          377 47 rmoveto
          845 vlineto
          25 34 80 34 100 hhcurveto
          169 154 -124 -350 -348 -153 -158 -187 -104 -72 52 24 -21 hvcurveto
          endchar
        </CharString>
        <CharString name="afii10087">
          -92 0 87 965 84 hstem
          17 1171 8 callgsubr
          486 87 vlineto
          -124 15 -367 488 -33 callsubr
        </CharString>
        <CharString name="afii10088">
          103 0 106 942 88 hstem
          109 callgsubr
          552 162 vstem
          106 hmoveto
          1089 hlineto
          1 -4 14 -323 117 callsubr
          54 470 4 vvcurveto
          -213 -1 -30 912 hlineto
          152 30 rlineto
          88 -491 -88 vlineto
          177 -30 rlineto
          -912 -552 913 vlineto
          177 29 rlineto
          88 -488 -88 vlineto
          150 -29 rlineto
          -912 vlineto
          -154 -19 rlineto
          endchar
        </CharString>
        <CharString name="afii10089">
          25 0 88 298 118 544 88 hstem
          152 166 584 162 vstem
          538 -20 callgsubr
          endchar
        </CharString>
        <CharString name="afii10090">
          679 0 103 945 88 hstem
          126 callgsubr
          vstem
          70 hmoveto
          1832 84 hlineto
          -186 20 rlineto
          913 vlineto
          176 31 rlineto
          88 -527 -88 vlineto
          189 -31 rlineto
          9 callsubr
        </CharString>
        <CharString name="afii10091">
          679 0 103 -103 106 942 88 hstemhm
          126 callgsubr
          hintmask 00000000
          hintmask 10111100
          70 hmoveto
          1675 hlineto
          2 -4 14 -323 2 -42 rrcurveto
          110 hlineto
          hintmask 01111100
          1 2 54 469 4 vvcurveto
          -212 911 hlineto
          176 31 rlineto
          88 -527 -88 vlineto
          189 -31 rlineto
          hintmask 10111100
          9 callsubr
        </CharString>
        <CharString name="afii10092">
          107 -23 102 -79 96 476 109 351 104 hstemhm
          81 141 327 162 483 176 hintmask 00000000
          hintmask 01110110
          299 hmoveto
          284 hlineto
          80 185 -23 79 hhcurveto
          hintmask 10111110
          277 166 106 250 222 -134 126 -292 hvcurveto
          -233 337 hlineto
          213 23 rlineto
          95 -846 vlineto
          6 -450 rlineto
          103 hlineto
          35 346 rlineto
          327 hlineto
          hintmask 01110110
          -927 vlineto
          -250 -17 rlineto
          hintmask 10110110
          412 15 rmoveto
          469 188 vlineto
          189 106 -63 -191 -178 -108 -61 -168 -74 -94 19 5 -39 hvcurveto
          endchar
        </CharString>
        <CharString name="afii10093">
          84 callgsubr
          hstemhm
          109 callgsubr
          476 175 227 163 -38 callgsubr
          hintmask 0101011110000000
          1146 hmoveto
          479 88 hlineto
          hintmask 0011011110000000
          59 callsubr
          hintmask 0101011110000000
          86 callgsubr
          hintmask 1001101110000000
          20 callgsubr
          hintmask 0101011110000000
          73 callsubr
          hintmask 1001011110000000
          354 12 rmoveto
          478 181 vlineto
          191 34 callsubr
        </CharString>
        <CharString name="afii10094">
          -180 -23 102 -79 84 -84 104 470 107 366 89 hstemhm
          109 callgsubr
          476 175 hintmask 00000000
          hintmask 01011110
          67 hmoveto
          230 hlineto
          69 189 -23 83 hhcurveto
          hintmask 10011110
          20 callgsubr
          215 29 rlineto
          89 -555 -89 vlineto
          179 -29 rlineto
          hintmask 00111110
          -914 vlineto
          hintmask 01011110
          -193 -20 rlineto
          hintmask 10011110
          354 12 rmoveto
          478 180 vlineto
          192 34 callsubr
        </CharString>
        <CharString name="afii10095">
          135 callsubr
          hstemhm
          85 98 -87 92 631 184 hintmask 00000000
          hintmask 11110100
          85 92 42 callsubr
          hintmask 11101100
          7 callsubr
          hintmask 11110100
          110 callgsubr
        </CharString>
        <CharString name="afii10096">
          540 -23 107 -84 88 -88 107 424 107 410 88 -75 107 hstemhm
          260 162 305 183 661 184 -38 callgsubr
          hintmask 0101011110000000
          89 hmoveto
          518 88 hlineto
          hintmask 0011011110000000
          -185 19 rlineto
          424 305 vlineto
          hintmask 1001011110000000
          -303 12 140 -251 351 hhcurveto
          261 264 222 371 322 -137 276 -368 -246 -248 -196 -334 -28 hvcurveto
          -306 hlineto
          hintmask 0011101110000000
          379 vlineto
          176 31 rlineto
          88 -504 -88 vlineto
          166 -31 rlineto
          -910 vlineto
          hintmask 0101011110000000
          -171 -19 rlineto
          hintmask 1001011110000000
          821 499 rmoveto
          314 123 160 208 241 89 -230 -269 -314 -123 -164 -209 -238 -91 230 273 vhcurveto
          endchar
        </CharString>
        <CharString name="afii10097">
          10 0 88 378 99 482 89 -87 101 hstemhm
          172 177 538 162 hintmask 00000000
          hintmask 11011100
          63 hmoveto
          235 hlineto
          118 44 375 92 125 hvcurveto
          302 -1 rlineto
          -359 vlineto
          -179 -19 rlineto
          -88 497 88 vlineto
          -156 19 rlineto
          hintmask 11101100
          910 vlineto
          139 30 rlineto
          89 -200 vlineto
          -72 -118 14 -129 hhcurveto
          hintmask 11011100
          -301 -196 -104 -221 -158 75 -136 184 -47 hvcurveto
          -98 -91 -53 -252 -137 -33 -80 -20 rcurveline
          602 478 rmoveto
          -224 -92 106 156 171 134 50 190 112 67 -9 -3 35 hvcurveto
          -468 vlineto
          -4 -27 -128 1 -67 hhcurveto
          endchar
        </CharString>
        <CharString name="afii10098">
          -321 0 97 931 108 -94 94 hstemhm
          267 161 hintmask 00000000
          hintmask 11010000
          103 hmoveto
          610 88 hlineto
          -285 19 rlineto
          921 496 vlineto
          -9 434 rlineto
          -103 hlineto
          -33 -326 rlineto
          -672 hlineto
          hintmask 10110000
          -94 vlineto
          160 -24 rlineto
          -911 vlineto
          -164 -19 rlineto
          endchar
        </CharString>
        <CharString name="afii10099">
          13 -501 95 -74 -21 501 88 -88 104 853 128 182 99 hstemhm
          211 164 578 59 callgsubr
          hintmask 01101111
          83 hmoveto
          445 88 hlineto
          hintmask 10011111
          -153 16 rlineto
          717 vlineto
          67 89 138 69 116 hhcurveto
          200 35 -107 -239 hvcurveto
          -565 vlineto
          -227 -47 -178 -123 -32 vhcurveto
          -30 -9 -56 -11 -21 5 9 -87 rcurveline
          12 -8 81 -1 16 1 rrcurveto
          197 13 127 170 340 vvcurveto
          589 vlineto
          336 -71 138 -259 -160 -187 -105 -62 -71 vhcurveto
          5 192 rlineto
          157 265 99 -265 291 vlineto
          -39 27 rlineto
          -3 hlineto
          -303 -35 rlineto
          -76 vlineto
          181 -17 rlineto
          -190 -201 -99 201 -1163 vlineto
          hintmask 01101111
          -128 -16 rlineto
          endchar
        </CharString>
        <CharString name="afii10100">
          -284 0 96 932 107 574 -21 hstemhm
          265 161 -31 448 hintmask 00101000
          453 1349 -94 callgsubr
          hintmask 00000000
          -295 -1405 rmoveto
          115 callgsubr
          929 85 callsubr
          hintmask 11010000
          51 callgsubr
        </CharString>
        <CharString name="afii10101">
          -222 -23 102 437 126 437 94 hstem
          77 184 636 98 vstem
          260 524 rmoveto
          489 -15 rlineto
          138 vlineto
          -488 -9 rlineto
          313 19 166 128 191 hhcurveto
          95 72 -20 -34 43 hvcurveto
          46 -164 rlineto
          97 hlineto
          1 261 rlineto
          30 -61 -145 21 -130 hhcurveto
          -322 -258 -244 -345 2 hvcurveto
          -366 2 171 -241 361 hhcurveto
          181 125 52 64 78 hvcurveto
          199 -98 vlineto
          -40 -168 rlineto
          -28 -55 -70 -17 -101 hhcurveto
          -198 -156 141 304 -17 hvcurveto
          endchar
        </CharString>
        <CharString name="afii10102">
          104 callsubr
          31 callsubr
          458 101 -88 153 hintmask 00000000
          hintmask 11100100
          119 64 -55 callgsubr
          hintmask 11011000
          -93 callsubr
          hintmask 11100100
          -68 callsubr
          endchar
        </CharString>
        <CharString name="afii10103">
          -623 0 44 callsubr
          210 227 -174 165 hintmask 11001000
          83 hmoveto
          -101 callsubr
          hintmask 00110000
          230 1284 -100 callgsubr
          endchar
        </CharString>
        <CharString name="afii10104">
          -623 142 callgsubr
          -8 228 43 165 12 228 hintmask 00000000
          hintmask 00110100
          543 1372 -106 callgsubr
          hintmask 11001000
          -12 -1372 -31 callgsubr
        </CharString>
        <CharString name="afii10105">
          -640 -497 92 1566 105 callsubr
          215 131 callsubr
          hintmask 11001000
          251 51 -97 callgsubr
          hintmask 00110000
          50 callsubr
          endchar
        </CharString>
        <CharString name="afii10106">
          391 -23 102 -91 166 -154 88 -88 105 469 107 346 69 callgsubr
          477 176 -38 callgsubr
          hintmask 0010110111000000
          31 hmoveto
          hintmask 0100110111000000
          -5 callsubr
          378 vlineto
          hintmask 0001110111000000
          -922 vlineto
          hintmask 0010110111000000
          -162 -17 rlineto
          -88 238 vlineto
          hintmask 1000101111000000
          -2 85 171 -21 75 hhcurveto
          273 134 127 236 222 -135 119 -292 -91 -96 -14 -10 -39 hvcurveto
          357 vlineto
          178 32 rlineto
          hintmask 1000110111000000
          90 -1005 vlineto
          hintmask 0100101111000000
          36 callsubr
          4 6 -29 hvcurveto
          hintmask 1000110111000000
          982 -68 rmoveto
          458 vlineto
          9 36 71 11 75 hhcurveto
          189 106 -58 -191 -178 -105 -68 -164 -107 -61 12 5 -40 hvcurveto
          endchar
        </CharString>
        <CharString name="afii10107">
          590 -23 101 -78 93 -93 96 441 100 -65 107 369 56 callgsubr
          476 175 -38 callgsubr
          hintmask 0011011110000000
          52 callsubr
          vlineto
          hintmask 0101011110000000
          -436 vlineto
          -191 -16 rlineto
          hintmask 0011011110000000
          -85 225 vlineto
          74 190 -23 80 hhcurveto
          hintmask 1000111110000000
          270 164 120 236 222 -121 124 -305 -92 -96 -16 -11 -37 hvcurveto
          366 130 callsubr
          -499 -88 vlineto
          185 -30 rlineto
          hintmask 0011011110000000
          -381 -618 381 67 callgsubr
          hintmask 1000111110000000
          1103 9 rmoveto
          451 vlineto
          10 33 75 14 73 hhcurveto
          190 105 -64 -190 -175 -99 -65 -169 -116 -54 12 7 -38 hvcurveto
          endchar
        </CharString>
        <CharString name="afii10108">
          59 0 88 879 128 161 98 hstem
          205 103 callgsubr
          77 hmoveto
          446 88 hlineto
          -153 16 rlineto
          728 vlineto
          65 87 139 70 117 hhcurveto
          201 34 -114 -239 hvcurveto
          -510 vlineto
          -144 -16 rlineto
          -88 459 88 vlineto
          -150 16 rlineto
          509 vlineto
          338 -70 144 -259 -171 -179 -111 -60 -69 vhcurveto
          5 171 rlineto
          161 275 98 -275 296 vlineto
          -39 27 rlineto
          -5 hlineto
          -301 -35 rlineto
          -75 vlineto
          180 -18 rlineto
          -195 -180 -98 180 -1153 vlineto
          -128 -15 rlineto
          endchar
        </CharString>
        <CharString name="afii10109">
          101 callgsubr
          573 -21 hstemhm
          260 157 107 448 hintmask 00010100
          582 1349 -94 callgsubr
          hintmask 11101000
          -427 -1405 rmoveto
          19 callsubr
          164 88 hlineto
          -76 21 -41 callgsubr
        </CharString>
        <CharString name="afii10110">
          -130 -40 callsubr
          198 98 hstemhm
          2 1153 -939 105 callgsubr
          120 callsubr
          143 -344 rmoveto
          hintmask 01110100
          -152 vlineto
          hintmask 10110100
          -105 callgsubr
          hintmask 00001011
          450 1678 -85 callsubr
          endchar
        </CharString>
        <CharString name="afii10145">
          322 0 105 1306 77 callgsubr
          286 165 717 166 147 callsubr
          104 hmoveto
          626 hlineto
          1 -2 32 -360 -7 vvcurveto
          122 hlineto
          7 32 360 1 2 vhcurveto
          599 88 hlineto
          -183 19 rlineto
          hintmask 11011000
          1304 vlineto
          hintmask 10111000
          164 -32 callgsubr
          -502 -88 vlineto
          hintmask 11011000
          172 -23 rlineto
          -1306 -717 1306 vlineto
          hintmask 10111000
          197 -32 callgsubr
          -535 -88 vlineto
          hintmask 11011000
          173 25 callgsubr
          -182 -20 rlineto
          endchar
        </CharString>
        <CharString name="afii10146">
          193 -17 96 -79 88 -88 106 621 103 390 98 231 78 hstemhm
          489 167 592 177 hintmask 00000000
          hintmask 01011111
          299 hmoveto
          278 hlineto
          85 167 -17 57 hhcurveto
          hintmask 10011111
          316 223 166 275 221 -145 185 -368 -95 -115 -14 -10 -46 hvcurveto
          425 1 vlineto
          353 -22 43 -170 rlineto
          117 hlineto
          -22 279 rlineto
          -492 204 hlineto
          188 27 rlineto
          78 -539 -78 vlineto
          184 -27 rlineto
          -204 -474 vlineto
          -25 -279 rlineto
          121 hlineto
          45 170 333 22 rlineto
          hintmask 00111111
          -1125 vlineto
          hintmask 01011111
          -190 -18 rlineto
          hintmask 10011111
          357 12 rmoveto
          616 vlineto
          8 41 90 3 81 hhcurveto
          231 149 -123 -194 -207 -146 -124 -233 -111 -55 12 9 -47 hvcurveto
          endchar
        </CharString>
        <CharString name="afii10147">
          -23 97 569 127 11 128 533 96 133 callgsubr
          947 189 hintmask 00000000
          hintmask 11011100
          -14 callsubr
          hintmask 11111100
          -460 791 rmoveto
          452 5 193 222 280 hhcurveto
          268 163 -220 -327 32 hvcurveto
          hintmask 11011100
          -42 -47 -90 -83 -106 -121 -142 139 -160 hhcurveto
          hintmask 11111100
          -128 -88 -72 -69 -59 hvcurveto
          3 -113 rmoveto
          43 48 84 83 108 112 147 -138 164 hhcurveto
          hintmask 11011100
          128 92 72 70 61 hvcurveto
          -11 vlineto
          -464 -194 -236 -281 vhcurveto
          hintmask 11111100
          -277 -166 239 342 -26 hvcurveto
          endchar
        </CharString>
        <CharString name="afii10148">
          47 5 -21 1409 130 -89 88 hstemhm
          -31 1440 hintmask 00000000
          hintmask 10110000
          610 -16 rmoveto
          134 hlineto
          400 1174 rlineto
          hintmask 11010000
          207 54 105 28 86 hhcurveto
          9 10 -1 -1 1 hvcurveto
          120 vlineto
          5 -11 -23 7 -52 hhcurveto
          -100 -130 -56 -195 -48 hvcurveto
          -275 -835 -73 -284 -85 286 rlineto
          hintmask 10110000
          -340 973 180 22 rlineto
          88 -483 -88 vlineto
          123 -23 rlineto
          endchar
        </CharString>
        <CharString name="afii10193">
          92 0 102 946 88 hstem
          109 callgsubr
          548 161 vstem
          112 hmoveto
          510 hlineto
          1 -2 40 -344 -8 vvcurveto
          106 hlineto
          8 23 344 2 2 vhcurveto
          486 88 hlineto
          -150 19 rlineto
          910 vlineto
          141 31 rlineto
          88 -462 47 callgsubr
          -916 -548 915 vlineto
          162 31 rlineto
          88 -471 -88 vlineto
          148 -31 rlineto
          -911 vlineto
          -148 -18 rlineto
          endchar
        </CharString>
        <CharString name="afii10194">
          82 -23 101 -78 74 524 105 358 85 hstemhm
          526 163 482 175 hintmask 00000000
          hintmask 01111100
          343 hmoveto
          251 hlineto
          79 187 -23 80 hhcurveto
          hintmask 10111100
          270 136 141 237 215 -120 133 -292 -94 -112 -13 -11 -38 hvcurveto
          -1 -1 rlineto
          383 318 vlineto
          52 -242 96 callsubr
          -10 327 rlineto
          -470 504 hlineto
          -40 28 rlineto
          -1 hlineto
          -288 -36 rlineto
          -78 vlineto
          166 -13 rlineto
          -405 -438 vlineto
          -10 -327 96 callsubr
          51 242 rlineto
          287 hlineto
          hintmask 01111100
          -959 vlineto
          -183 -28 rlineto
          hintmask 10111100
          346 22 rmoveto
          481 vlineto
          1 -1 rlineto
          8 33 87 14 80 hhcurveto
          190 91 -73 -184 -176 -99 -87 -170 -106 -67 13 5 -40 hvcurveto
          endchar
        </CharString>
        <CharString name="afii10195">
          -80 -23 107 342 122 -9 122 400 107 132 callsubr
          659 187 hintmask 00000000
          hintmask 11011100
          93 576 rmoveto
          -322 138 -277 368 261 265 219 373 322 -139 277 -368 -261 -264 -220 -372 vhcurveto
          hintmask 10111100
          186 42 rmoveto
          294 8 122 149 201 hhcurveto
          234 90 -223 -263 4 hvcurveto
          hintmask 11011100
          -16 -32 -40 -11 -47 hhcurveto
          hintmask 10111100
          -141 -61 113 -179 hhcurveto
          -60 -54 -17 -26 -45 hvcurveto
          2 -106 rmoveto
          16 34 44 11 52 hhcurveto
          hintmask 11011100
          148 59 -113 186 hhcurveto
          54 42 12 22 33 hvcurveto
          -249 -23 -117 -127 -185 hhcurveto
          hintmask 10111100
          -216 -95 189 239 -16 hvcurveto
          endchar
        </CharString>
        <CharString name="afii10196">
          -161 4 -21 1017 137 -87 86 hstemhm
          4 1179 hintmask 00000000
          hintmask 10110000
          512 -17 rmoveto
          140 hlineto
          309 795 rlineto
          hintmask 11010000
          55 149 48 55 50 18 28 9 21 0 20 -1 rrcurveto
          hintmask 10110000
          117 vlineto
          6 -11 -25 6 -48 hhcurveto
          -88 -90 -59 -187 -61 hvcurveto
          -154 -444 -101 -318 -105 298 -213 592 149 31 rlineto
          86 -432 -86 vlineto
          100 -30 rlineto
          endchar
        </CharString>
        <CharString name="afii10846">
          -209 102 callsubr
          hstem
          93 177 547 177 vstem
          93 383 -29 callsubr
        </CharString>
        <CharString name="afii61248">
          786 21 -21 49 99 515 111 12 99 516 99 38 -20 hstemhm
          149 158 917 157 431 121 callgsubr
          hintmask 1101111110000000
          646 61 callgsubr
          hintmask 1111111110000000
          -783 -875 rmoveto
          107 112 51 54 58 hvcurveto
          -45 81 rlineto
          -35 -44 -64 -40 -100 hhcurveto
          -130 -108 106 232 2 hvcurveto
          177 1 98 112 127 hhcurveto
          54 45 -17 -28 25 hvcurveto
          23 -147 rlineto
          100 hlineto
          5 249 rlineto
          16 -40 -89 26 -91 hhcurveto
          -265 -152 -207 -226 1 hvcurveto
          -228 1 137 -176 232 hhcurveto
          hintmask 1101111110000000
          705 -204 -6 callsubr
        </CharString>
        <CharString name="afii61352">
          1442 0 87 -87 107 116 109 217 101 785 87 -78 102 hstemhm
          343 118 777 118 242 162 565 163 -38 callgsubr
          hintmask 1011011111000000
          1598 1062 rmoveto
          -275 -3 133 -238 308 hhcurveto
          241 209 202 307 2 hvcurveto
          271 3 -148 217 -284 hhcurveto
          -232 -225 -177 -307 -4 hvcurveto
          -1415 -1062 rmoveto
          458 87 hlineto
          hintmask 0111101111000000
          -180 20 rlineto
          1218 vlineto
          134 -275 rlineto
          hintmask 1011101111000000
          609 -1050 rlineto
          153 1412 hlineto
          166 23 rlineto
          87 -456 -87 vlineto
          171 -24 1 -1225 -113 257 -614 1079 rlineto
          -329 -87 hlineto
          hintmask 0111011111000000
          160 -24 rlineto
          -1304 vlineto
          hintmask 1011011111000000
          -160 -20 rlineto
          1577 982 rmoveto
          245 103 133 186 -3 vhcurveto
          190 -4 86 -161 -232 vvcurveto
          -265 -93 -135 -190 3 vhcurveto
          -196 4 -86 182 233 vvcurveto
          -157 -846 rmoveto
          879 109 -879 hlineto
          endchar
        </CharString>
        <CharString name="agrave">
          -28 callgsubr
          549 -21 92 callsubr
          -95 448 152 -99 callgsubr
          hintmask 00001010
          293 1030 -74 callgsubr
        </CharString>
        <CharString name="amacron">
          -28 callgsubr
          271 126 92 callsubr
          -24 535 -6 -99 callgsubr
          hintmask 00001010
          -24 1112 3 callgsubr
        </CharString>
        <CharString name="ampersand">
          244 -17 103 -99 94 -73 -21 742 100 628 83 hstemhm
          139 165 -40 162 424 149 197 131 -38 callgsubr
          hintmask 1000110110000000
          139 371 rmoveto
          -250 212 -138 315 101 160 31 102 119 vhcurveto
          hintmask 0010110110000000
          -86 98 68 -43 94 hhcurveto
          30 69 6 14 26 hvcurveto
          hintmask 0101101110000000
          74 vlineto
          -113 7 -69 48 -88 82 105 109 65 185 -4 197 175 20 rcurveline
          100 -477 -100 vlineto
          168 -20 14 -125 -25 -176 -97 -117 rlinecurve
          -56 55 -102 103 -185 206 -96 117 rlinecurve
          172 133 181 100 256 vvcurveto
          129 -112 150 -237 -222 -164 -162 -185 -150 89 -164 93 -119 vhcurveto
          hintmask 1000110110000000
          -141 -87 -166 -114 -188 vvcurveto
          450 470 rmoveto
          hintmask 1000101110000000
          -68 80 -95 120 166 vvcurveto
          136 96 114 123 171 34 -129 -78 vhcurveto
          hintmask 1000110110000000
          -1 -190 -82 -81 -178 -138 rrcurveto
          -285 -454 rmoveto
          132 97 95 103 78 vhcurveto
          125 -144 204 -236 137 -127 rrcurveto
          -68 -84 -119 -31 -94 hhcurveto
          -247 -122 140 161 hvcurveto
          endchar
        </CharString>
        <CharString name="aogonek">
          -158 -510 115 372 122 -93 -21 28 76 497 96 345 133 92 callsubr
          283 163 59 163 -38 callgsubr
          hintmask 1100111110000000
          -78 callgsubr
          hintmask 1010111110000000
          -75 vlineto
          -56 13 -20 27 -7 vhcurveto
          -141 -67 -134 -133 -103 71 callgsubr
          91 27 43 57 55 callsubr
          -73 34 97 hvcurveto
          hintmask 1001111110000000
          83 112 113 137 59 vhcurveto
          39 7 37 8 25 7 rrcurveto
          76 -128 675 vlineto
          287 -95 109 -278 -188 -216 -117 -36 -38 vhcurveto
          45 -90 rlineto
          1 hlineto
          38 65 136 72 159 hhcurveto
          193 53 -78 -203 hvcurveto
          -64 vlineto
          hintmask 1100111110000000
          -99 callsubr
          endchar
        </CharString>
        <CharString name="approxequal">
          92 173 134 34 134 282 134 34 134 hstemhm
          220 960 hintmask 11001000
          290 222 -24 callsubr
          hintmask 00111000
          70 508 -24 callsubr
          endchar
        </CharString>
        <CharString name="aring">
          -28 callgsubr
          158 81 382 83 92 callsubr
          -77 125 393 124 -60 163 -38 callgsubr
          hintmask 1011001001000000
          -78 callgsubr
          hintmask 0111001001000000
          -102 callsubr
          hintmask 1011001001000000
          -99 callsubr
          hintmask 0000110110000000
          241 999 -53 callgsubr
          endchar
        </CharString>
        <CharString name="arrowboth">
          1194 136 callsubr
          2374 99 callsubr
          1687 hlineto
          105 11 -442 -440 91 -93 590 589 -590 590 -91 -94 441 -439 -104 11 rlineto
          -1687 hlineto
          -103 -11 441 136 callgsubr
        </CharString>
        <CharString name="arrowdown">
          100 callgsubr
          486 rmoveto
          11 -103 -440 441 -93 -91 589 -590 590 590 -94 91 -439 -441 11 103 rlineto
          961 vlineto
          -135 -1 rlineto
          endchar
        </CharString>
        <CharString name="arrowleft">
          232 136 callsubr
          1304 99 callsubr
          959 hlineto
          2 135 rlineto
          -961 hlineto
          -104 -11 442 136 callgsubr
        </CharString>
        <CharString name="arrowright">
          232 136 callsubr
          1304 vstem
          1417 766 rmoveto
          -590 590 -91 -94 442 -439 -104 11 rlineto
          -961 hlineto
          2 -135 rlineto
          959 hlineto
          104 11 -442 -440 91 -93 rlineto
          endchar
        </CharString>
        <CharString name="arrowup">
          100 callgsubr
          144 rmoveto
          135 -1 rlineto
          961 vlineto
          -11 103 439 -441 94 91 -590 590 -589 -590 93 -91 440 441 -11 -103 rlineto
          endchar
        </CharString>
        <CharString name="arrowupdn">
          232 -416 2373 hstem
          697 135 vstem
          175 174 rmoveto
          590 -590 589 590 -93 91 -440 -443 11 104 rlineto
          1688 vlineto
          -11 104 440 -442 93 91 -589 590 -590 -590 94 -91 439 441 -11 -103 rlineto
          -1688 vlineto
          11 -102 -439 441 rlineto
          endchar
        </CharString>
        <CharString name="asciicircum">
          65 1531 -20 hstem
          185 993 vstem
          185 273 rmoveto
          132 hlineto
          363 1083 364 -1083 rlineto
          134 hlineto
          -415 1258 rlineto
          -168 hlineto
          endchar
        </CharString>
        <CharString name="asciitilde">
          113 464 134 34 134 hstem
          225 960 vstem
          295 513 -24 callsubr
          endchar
        </CharString>
        <CharString name="asterisk">
          -1 1155 -20 hstem
          165 967 vstem
          573 642 rmoveto
          162 1 -34 315 -34 162 128 -107 255 -181 82 143 -288 129 -156 51 156 55 283 136 -80 137 -258 -184 -122 -109 31 161 26 314 rlineto
          -162 hlineto
          32 -315 34 -162 -126 107 -258 182 -79 -140 288 -132 155 -50 -155 -54 -286 -137 82 -139 257 184 121 112 -30 -163 rlineto
          endchar
        </CharString>
        <CharString name="at">
          902 -512 116 370 130 -130 148 797 121 383 117 hstemhm
          204 132 292 157 489 143 437 117 -38 callgsubr
          hintmask 1011111110000000
          204 371 rmoveto
          -537 268 -346 484 195 184 63 83 100 vhcurveto
          -32 70 rlineto
          -56 -82 -190 -44 -147 hhcurveto
          -375 -273 276 522 633 415 388 452 339 312 -190 -481 hvcurveto
          hintmask 1101111110000000
          -402 -244 -246 -145 -35 -23 60 169 13 vhcurveto
          14 203 63 331 27 129 -38 13 -28 12 -33 10 -22 5 -10 -31 -9 -24 rrcurveto
          39 -70 -97 20 -73 hhcurveto
          -322 -194 -389 -274 hvcurveto
          hintmask 1011111110000000
          -255 143 -148 134 153 154 237 234 89 vhcurveto
          -25 -136 -7 -94 5 -64 rrcurveto
          hintmask 1101111110000000
          -114 7 74 -63 70 hhcurveto
          169 377 276 540 504 -302 246 -408 hvcurveto
          hintmask 1011111110000000
          -555 -502 -459 -710 hvcurveto
          581 44 rmoveto
          249 114 255 202 73 128 -32 -41 41 vhcurveto
          -12 -73 -23 -82 -28 -81 rrcurveto
          -261 -90 -151 -227 -102 hhcurveto
          -113 -39 162 131 hvcurveto
          endchar
        </CharString>
        <CharString name="atilde">
          -28 callgsubr
          192 123 callsubr
          92 callsubr
          -157 806 -144 163 -38 callgsubr
          hintmask 1011001010000000
          -78 callgsubr
          hintmask 0111001010000000
          -102 callsubr
          hintmask 1011001010000000
          -99 callsubr
          hintmask 0000110100000000
          -73 1076 -75 callgsubr
        </CharString>
        <CharString name="b">
          -70 -23 104 961 126 hstem
          170 165 619 180 vstem
          -27 callgsubr
          endchar
        </CharString>
        <CharString name="backslash">
          -416 -363 1962 hstem
          73 726 vstem
          226 1599 rmoveto
          -153 hlineto
          573 -1962 rlineto
          153 hlineto
          endchar
        </CharString>
        <CharString name="bar">
          98 callgsubr
          -186 rmoveto
          147 1966 -147 hlineto
          endchar
        </CharString>
        <CharString name="braceleft">
          97 callsubr
          305 165 -34 140 hintmask 00000000
          hintmask 11110000
          305 -24 rmoveto
          -165 68 -89 240 91 80 13 21 76 vhcurveto
          82 vlineto
          -4 -15 -147 -3 -19 hhcurveto
          -128 -81 32 143 hvcurveto
          134 106 182 148 vvcurveto
          hintmask 11101000
          130 -98 70 -133 19 vhcurveto
          133 19 98 61 130 148 -106 183 133 vvcurveto
          hintmask 11110000
          140 83 36 126 15 151 -3 -4 15 vhcurveto
          81 vlineto
          21 -76 -80 13 -91 hhcurveto
          -240 -68 -89 -165 hvcurveto
          -191 131 -138 -155 vvcurveto
          hintmask 11101000
          -98 -30 -47 -240 1 vhcurveto
          -142 vlineto
          240 1 30 -65 -99 vvcurveto
          hintmask 11110000
          -155 -131 -138 -191 vvcurveto
          endchar
        </CharString>
        <CharString name="braceright">
          97 callsubr
          451 140 -34 59 callgsubr
          hintmask 11101000
          722 -24 rmoveto
          191 -131 138 155 vvcurveto
          99 30 65 240 -1 vhcurveto
          hintmask 11110000
          142 vlineto
          -240 -1 -30 47 98 155 131 138 191 vvcurveto
          165 -68 89 -240 -91 -80 -13 -21 -76 vhcurveto
          -81 vlineto
          hintmask 11101000
          4 15 151 3 15 hhcurveto
          126 83 -36 -140 hvcurveto
          -133 -106 -183 -148 vvcurveto
          hintmask 11110000
          -130 98 -61 133 -19 vhcurveto
          -133 -19 -98 -70 -130 -148 106 -182 -134 vvcurveto
          -143 -81 -32 -128 -19 -147 3 4 -15 vhcurveto
          -82 vlineto
          -21 76 80 -13 91 hhcurveto
          hintmask 11101000
          240 68 89 165 hvcurveto
          endchar
        </CharString>
        <CharString name="bracketleft">
          127 callsubr
          202 149 vstem
          202 -90 rmoveto
          -162 42 -29 126 109 112 16 21 86 vhcurveto
          76 -326 1704 326 75 vlineto
          17 -78 -113 19 -116 hhcurveto
          -127 -41 -30 -160 hvcurveto
          endchar
        </CharString>
        <CharString name="bracketright">
          127 callsubr
          521 149 vstem
          670 1457 rmoveto
          160 -41 30 -127 -116 -113 -19 -17 -78 vhcurveto
          -75 326 -1704 -326 -76 vlineto
          -21 86 112 -16 109 hhcurveto
          126 42 29 162 hvcurveto
          endchar
        </CharString>
        <CharString name="breve">
          -276 1364 142 hstem
          181 95 466 93 vstem
          511 1364 -94 callsubr
        </CharString>
        <CharString name="breve.cap">
          -276 1655 135 hstem
          181 95 465 94 vstem
          511 1655 -1 callsubr
        </CharString>
        <CharString name="breve.r">
          -276 1334 98 hstem
          140 105 callgsubr
          vstem
          517 1334 -85 callsubr
          endchar
        </CharString>
        <CharString name="breve.rcap">
          -295 1668 84 hstem
          125 130 callgsubr
          vstem
          501 1668 -82 callsubr
          endchar
        </CharString>
        <CharString name="brokenbar">
          98 callgsubr
          950 rmoveto
          147 830 -147 hlineto
          -1966 vmoveto
          147 827 -147 hlineto
          endchar
        </CharString>
        <CharString name="bullet">
          -456 513 359 hstem
          250 342 vstem
          413 513 51 callsubr
        </CharString>
        <CharString name="bullet.cap">
          -456 661 359 hstem
          251 342 vstem
          414 661 51 callsubr
        </CharString>
        <CharString name="c">
          81 callgsubr
          hstem
          69 177 vstem
          -21 callsubr
          endchar
        </CharString>
        <CharString name="cacute">
          81 callgsubr
          541 -21 hstemhm
          69 177 232 448 hintmask 00101000
          536 1349 -94 callgsubr
          hintmask 11010000
          -409 -851 -98 callgsubr
          endchar
        </CharString>
        <CharString name="caron">
          -276 1355 442 hstem
          156 711 vstem
          435 1355 -18 callgsubr
        </CharString>
        <CharString name="caron.cap">
          -619 1692 319 hstem
          16 649 vstem
          264 1692 -32 callsubr
        </CharString>
        <CharString name="caronvertical">
          -956 1045 633 hstem
          129 150 vstem
          161 1045 -58 callgsubr
        </CharString>
        <CharString name="ccaron">
          81 callgsubr
          187 442 hstemhm
          69 177 -11 711 hintmask 00101000
          514 1355 -78 callsubr
          hintmask 11010000
          -166 -1200 -98 callgsubr
          endchar
        </CharString>
        <CharString name="ccedilla">
          -255 108 callsubr
          334 113 -92 -21 1087 97 hstemhm
          69 177 378 144 hintmask 00000000
          hintmask 10111100
          374 54 callsubr
          113 -71 111 -45 52 rrcurveto
          hintmask 11011100
          116 18 114 59 62 62 -33 68 rcurveline
          -44 -60 -116 -50 -125 hhcurveto
          -208 -162 165 356 2 hvcurveto
          282 1 139 171 210 hhcurveto
          84 81 -13 -49 11 hvcurveto
          43 -195 rlineto
          102 hlineto
          9 292 rlineto
          23 -53 -115 39 -120 hhcurveto
          -384 -187 -290 -324 2 hvcurveto
          2 -319 171 -253 326 -5 rrcurveto
          23 -40 33 -73 -68 vvcurveto
          -126 -55 -20 -100 vhcurveto
          -1 hlineto
          hintmask 10111100
          -20 -45 6 10 -29 hvcurveto
          endchar
        </CharString>
        <CharString name="ccircumflex">
          81 callgsubr
          119 callsubr
          69 177 -19 715 hintmask 00000000
          hintmask 00010100
          292 1333 -39 callsubr
          hintmask 00100100
          -46 callgsubr
          hintmask 11001000
          -158 -821 -98 callgsubr
          endchar
        </CharString>
        <CharString name="cdotaccent">
          81 callgsubr
          204 253 hstemhm
          69 177 234 227 hintmask 11010000
          -21 callsubr
          hintmask 00101000
          514 818 -100 callgsubr
          endchar
        </CharString>
        <CharString name="cedilla">
          -683 108 callsubr
          372 -21 hstem
          252 144 vstem
          182 1 rmoveto
          19 -28 51 -92 -85 -90 callgsubr
          5 128 -92 126 -42 39 -37 11 rcurveline
          endchar
        </CharString>
        <CharString name="cent">
          -107 -22 119 -93 -21 1088 95 -1 -20 21 -20 hstemhm
          119 177 241 115 -16 115 hintmask 00000000
          hintmask 01001110
          543 -17 rmoveto
          -12 -226 rlineto
          115 hlineto
          hintmask 10100110
          12 221 132 9 138 65 70 71 rlinecurve
          -33 68 rlineto
          -44 -60 -116 -50 -125 hhcurveto
          -208 -162 165 356 2 hvcurveto
          282 1 139 171 210 hhcurveto
          84 81 -13 -49 11 hvcurveto
          43 -195 rlineto
          102 hlineto
          hintmask 10010101
          9 292 -45 19 -88 31 -98 9 rlinecurve
          12 210 rlineto
          -115 hlineto
          hintmask 10001101
          -12 -209 -345 -28 -168 -277 2 -307 rlinecurve
          hintmask 01001110
          2 -294 145 -237 277 -40 rrcurveto
          endchar
        </CharString>
        <CharString name="circumflex">
          -237 1643 58 callsubr
          168 715 hintmask 00000000
          hintmask 01100000
          233 1333 -39 callsubr
          hintmask 10100000
          -46 callgsubr
          endchar
        </CharString>
        <CharString name="circumflex.cap">
          -236 1673 341 hstem
          192 681 vstem
          260 1673 -90 callsubr
        </CharString>
        <CharString name="colon">
          -591 -1 -21 872 -21 hstemhm
          231 243 hintmask 01100000
          231 944 rmoveto
          -46 callsubr
          hintmask 10100000
          -851 vmoveto
          -46 callsubr
          endchar
        </CharString>
        <CharString name="colonmonetary">
          219 -28 97 -58 -21 1446 104 hstemhm
          205 183 306 114 185 106 hintmask 00000000
          hintmask 10111100
          588 24 rmoveto
          -25 -332 rlineto
          108 hlineto
          hintmask 01111100
          23 298 rlineto
          hintmask 10111100
          -12 50 53 -6 57 hhcurveto
          23 hlineto
          -21 -280 rlineto
          107 hlineto
          22 289 167 22 75 62 73 3 rlinecurve
          25 242 -95 14 -65 -161 -33 -31 -60 -35 -79 -17 rlinecurve
          89 1335 47 -11 35 -16 20 -18 rlinecurve
          29 -198 rlineto
          94 hlineto
          19 299 rlineto
          -35 -90 35 20 -111 hvcurveto
          19 275 rlineto
          -107 hlineto
          -17 -262 rlineto
          1 -14 -14 0 -13 hhcurveto
          -50 -48 -5 -8 -47 hvcurveto
          19 274 rlineto
          -108 hlineto
          -20 -301 rlineto
          -292 -97 -193 -272 -406 vvcurveto
          -330 135 -264 248 -107 vhcurveto
          113 80 rmoveto
          90 1322 rlineto
          6 33 35 4 37 hhcurveto
          28 27 -1 -3 26 hvcurveto
          -92 -1363 rlineto
          -70 -61 13 22 -53 hvcurveto
          -103 61 rmoveto
          -150 122 -60 225 247 vvcurveto
          327 110 215 183 88 vhcurveto
          endchar
        </CharString>
        <CharString name="comma">
          -612 -438 722 hstem
          346 142 vstem
          11 callgsubr
          endchar
        </CharString>
        <CharString name="commaaccent">
          -619 -536 -21 59 -21 hstem
          332 141 vstem
          249 -208 -100 callsubr
          endchar
        </CharString>
        <CharString name="copyright">
          831 122 100 294 128 744 107 288 97 hstem
          194 112 316 161 1039 113 vstem
          -11 callgsubr
          316 -9 rmoveto
          -278 152 -200 296 142 126 80 72 57 vhcurveto
          -41 69 rlineto
          -56 -56 -78 -37 -93 hhcurveto
          -208 -136 149 233 223 107 139 177 105 44 -14 -22 31 hvcurveto
          40 -132 rlineto
          97 hlineto
          1 215 rlineto
          39 -40 -128 21 -88 hhcurveto
          -291 -216 -222 -279 hvcurveto
          endchar
        </CharString>
        <CharString name="currency">
          249 330 125 636 125 hstem
          341 133 595 141 vstem
          215 294 rmoveto
          103 -104 211 210 rlineto
          -44 68 82 -26 91 hhcurveto
          90 84 28 47 69 hvcurveto
          212 -211 103 104 -209 209 rlineto
          57 77 34 96 103 vvcurveto
          100 -32 90 -54 72 vhcurveto
          208 207 -104 104 -212 -211 rlineto
          45 -70 -85 26 -91 hhcurveto
          -91 -82 -28 -48 -67 hvcurveto
          -213 214 -102 -104 212 -213 rlineto
          -55 -77 -31 -95 -102 vvcurveto
          -100 30 -89 51 -72 vhcurveto
          349 -47 rmoveto
          -166 -131 137 174 169 100 156 191 167 137 -148 -173 -173 -96 -142 -202 hvcurveto
          endchar
        </CharString>
        <CharString name="d">
          -33 40 callgsubr
          80 callsubr
          hintmask 00000000
          hintmask 10101100
          542 -23 23 callsubr
          hintmask 01011100
          -66 callsubr
          hintmask 10101100
          -93 callgsubr
          endchar
        </CharString>
        <CharString name="dagger">
          -231 1132 122 hstemhm
          458 150 -135 121 hintmask 00000000
          hintmask 10100000
          490 117 rmoveto
          89 hlineto
          31 803 -18 215 312 -5 rlineto
          127 vlineto
          hintmask 11000000
          -312 -5 16 224 rlineto
          173 -150 -173 vlineto
          18 -224 -312 5 -1 -127 rlineto
          hintmask 10100000
          313 5 -19 -215 rlineto
          endchar
        </CharString>
        <CharString name="daggerdbl">
          -230 509 121 502 122 hstemhm
          458 121 -112 133 -126 120 -104 119 hintmask 00000000
          hintmask 11000100
          162 507 rmoveto
          315 4 -19 -215 32 -735 rlineto
          hintmask 11100000
          89 hlineto
          hintmask 11001000
          31 735 -18 215 313 -4 rlineto
          126 vlineto
          hintmask 11010000
          -313 -5 18 294 -18 213 313 -5 rlineto
          127 vlineto
          hintmask 11000100
          -313 -5 17 224 rlineto
          173 vlineto
          hintmask 11100000
          -151 -173 hlineto
          19 -224 -315 5 rlineto
          -127 vlineto
          hintmask 11010000
          315 5 -19 -213 19 -294 -315 5 rlineto
          endchar
        </CharString>
        <CharString name="dcaron">
          140 -23 130 -126 111 953 633 -614 104 -25 -20 hstemhm
          89 131 callgsubr
          268 150 hintmask 00000000
          hintmask 10010110
          537 -23 23 callsubr
          hintmask 01001110
          -66 callsubr
          hintmask 10010110
          -93 callgsubr
          hintmask 00100001
          750 938 -58 callgsubr
        </CharString>
        <CharString name="dcroat">
          -36 40 callgsubr
          187 99 hstemhm
          88 131 callgsubr
          hintmask 00000000
          hintmask 10101110
          536 -23 23 callsubr
          hintmask 01011110
          -73 vlineto
          -79 29 -9 57 78 64 19 13 53 vhcurveto
          79 -125 1218 150 99 -150 239 vlineto
          -38 29 rlineto
          -5 hlineto
          -335 -34 rlineto
          -75 vlineto
          213 -19 rlineto
          -140 -268 -99 268 -167 vlineto
          hintmask 10101110
          -93 callgsubr
          endchar
        </CharString>
        <CharString name="degree">
          -382 951 114 456 113 hstem
          115 118 449 120 vstem
          457 951 rmoveto
          191 154 145 197 186 -144 155 -201 -187 -155 -145 -196 -187 155 -155 187 hvcurveto
          2 114 rmoveto
          -123 -103 103 125 131 94 97 129 128 98 -103 -125 -135 -92 -93 -131 hvcurveto
          endchar
        </CharString>
        <CharString name="dieresis">
          -276 1372 252 hstemhm
          175 32 callgsubr
          hintmask 00000000
          hintmask 11100000
          726 1372 -80 callsubr
        </CharString>
        <CharString name="dieresis.cap">
          -278 1708 253 hstemhm
          154 41 callsubr
          hintmask 00000000
          hintmask 11100000
          743 -91 callgsubr
          endchar
        </CharString>
        <CharString name="divide">
          66 80 246 226 126 472 -20 hstemhm
          558 251 -232 251 hintmask 00000000
          hintmask 01101000
          692 904 rmoveto
          70 66 53 79 62 -34 52 -81 -66 -70 -58 -75 -69 55 -44 60 hvcurveto
          -473 -352 rmoveto
          926 126 -926 hlineto
          hintmask 11110000
          339 -485 rmoveto
          -70 55 -43 59 70 67 53 79 61 -35 53 -80 -67 -69 -58 -75 vhcurveto
          endchar
        </CharString>
        <CharString name="dollar">
          72 -20 96 1366 96 -3 -20 hstemhm
          232 159 204 129 -96 131 240 138 callgsubr
          hintmask 11011010
          210 69 rmoveto
          52 -25 162 -53 172 -11 -2 -238 rcurveline
          129 hlineto
          2 238 rlineto
          276 20 164 154 225 vvcurveto
          241 -177 84 -273 155 vhcurveto
          -161 88 -163 76 180 vvcurveto
          174 143 64 161 1 vhcurveto
          116 1 71 -27 45 -35 47 -245 rcurveline
          99 hlineto
          11 325 rlineto
          hintmask 11010110
          -52 22 -112 46 -161 9 rrcurveto
          224 -131 vlineto
          hintmask 10110110
          -227 vlineto
          -214 -24 -182 -126 -207 vvcurveto
          -233 140 -105 237 -124 vhcurveto
          200 -105 190 -85 -176 vvcurveto
          -184 -118 -90 -210 -134 -106 31 51 -63 vhcurveto
          -40 255 rlineto
          -103 hlineto
          endchar
        </CharString>
        <CharString name="dong">
          31 0 100 156 113 -104 118 691 93 150 98 hstemhm
          184 165 525 161 hintmask 00000000
          hintmask 10111110
          540 265 rmoveto
          165 106 80 75 69 hvcurveto
          hintmask 11011110
          -82 vlineto
          -74 28 -8 57 77 68 18 14 51 vhcurveto
          81 -126 948 177 98 -177 235 vlineto
          -37 26 rlineto
          -5 hlineto
          -319 -35 rlineto
          -78 vlineto
          200 -13 rlineto
          -135 -311 -98 311 -186 vlineto
          18 -61 -73 18 -84 hhcurveto
          -300 -172 -198 -273 hvcurveto
          hintmask 10111110
          -284 178 -147 178 vhcurveto
          51 118 rmoveto
          -126 -120 103 230 4 hvcurveto
          258 5 136 100 150 hhcurveto
          108 107 -29 -33 19 hvcurveto
          -488 vlineto
          -59 -49 -100 -82 -134 hhcurveto
          -389 -383 rmoveto
          985 100 -985 hlineto
          endchar
        </CharString>
        <CharString name="dotaccent">
          -723 1372 253 hstem
          178 227 vstem
          281 1372 -100 callgsubr
          endchar
        </CharString>
        <CharString name="dotaccent.cap">
          -724 1713 252 hstem
          177 228 vstem
          280 1713 -5 callgsubr
        </CharString>
        <CharString name="dotlessi">
          38 callgsubr
          hstem
          267 165 vstem
          87 hmoveto
          -101 callsubr
          endchar
        </CharString>
        <CharString name="dotlessj">
          101 callsubr
          hstem
          254 164 vstem
          5 callgsubr
          endchar
        </CharString>
        <CharString name="e">
          -36 callgsubr
          hstem
          96 179 560 178 vstem
          96 574 -95 callsubr
        </CharString>
        <CharString name="eacute">
          -36 callgsubr
          541 -21 132 callgsubr
          210 448 -98 178 hintmask 00010100
          543 1349 -94 callgsubr
          hintmask 11101010
          -389 -831 -95 callsubr
        </CharString>
        <CharString name="ebreve">
          -36 callgsubr
          196 142 132 callgsubr
          -10 95 466 93 -84 178 hintmask 11101001
          96 574 -107 callgsubr
          hintmask 00010110
          -235 686 -94 callsubr
        </CharString>
        <CharString name="ecaron">
          -36 callgsubr
          187 442 132 callgsubr
          -34 711 -117 178 hintmask 00010100
          520 1355 -78 callsubr
          hintmask 11101010
          -145 -1180 -95 callsubr
        </CharString>
        <CharString name="ecircumflex">
          -36 callgsubr
          119 callsubr
          96 179 -44 715 -111 178 hintmask 00000000
          hintmask 00001010
          296 1333 -39 callsubr
          hintmask 00010010
          -46 callgsubr
          hintmask 11100101
          -135 -801 -95 callsubr
        </CharString>
        <CharString name="edieresis">
          -36 callgsubr
          204 252 132 callgsubr
          -16 32 callgsubr
          -100 178 hintmask 00000000
          hintmask 00010110
          810 1372 -106 callgsubr
          hintmask 11101001
          -266 -798 -95 callsubr
        </CharString>
        <CharString name="edotaccent">
          -36 callgsubr
          204 253 132 callgsubr
          212 227 121 178 hintmask 11101010
          96 574 -107 callgsubr
          hintmask 00010100
          -240 694 -100 callgsubr
          endchar
        </CharString>
        <CharString name="egrave">
          -36 callgsubr
          541 -21 132 callgsubr
          -21 448 133 178 hintmask 11101010
          96 574 -107 callgsubr
          hintmask 00010100
          -188 671 -74 callgsubr
        </CharString>
        <CharString name="eight">
          -13 -18 89 1404 84 hstemhm
          147 162 -98 146 582 145 -106 169 hintmask 00000000
          hintmask 11100100
          147 376 rmoveto
          -285 264 -109 231 254 251 158 254 199 -164 113 -179 98 vhcurveto
          hintmask 11011000
          174 104 106 150 163 vvcurveto
          208 -180 130 -246 -224 -223 -130 -249 -191 116 -112 142 -87 vhcurveto
          hintmask 11100100
          -222 -102 -100 -154 -158 vvcurveto
          hintmask 11011000
          568 477 rmoveto
          -185 98 -173 95 171 vvcurveto
          160 133 98 160 172 117 -111 -190 -133 -92 -122 -132 -66 vhcurveto
          hintmask 11100100
          -406 -441 rmoveto
          145 106 121 137 65 vhcurveto
          205 -110 221 -82 -195 vvcurveto
          -171 -163 -114 -155 -215 -136 131 210 vhcurveto
          endchar
        </CharString>
        <CharString name="eight.dnom">
          -277 -20 75 895 77 hstemhm
          110 15 callsubr
          hintmask 00000000
          hintmask 11100100
          110 -38 callsubr
          hintmask 11011000
          -37 callsubr
          hintmask 11100100
          76 callsubr
          hintmask 11011000
          484 286 rmoveto
          -150 59 -147 51 111 vvcurveto
          101 98 74 117 128 87 -79 -119 -63 -51 -88 -82 -47 vhcurveto
          hintmask 11100100
          -333 -262 -37 callgsubr
          endchar
        </CharString>
        <CharString name="ellipsis">
          210 -22 250 hstemhm
          129 244 259 244 259 243 hintmask 00000000
          hintmask 11110000
          1135 93 rmoveto
          -70 51 -45 60 70 62 55 80 60 -32 55 -79 -67 -65 -59 -76 vhcurveto
          -503 hmoveto
          -70 51 -45 61 69 63 55 80 60 -33 55 -79 -66 -66 -59 -76 vhcurveto
          -503 hmoveto
          -70 51 -45 61 69 63 55 80 60 -32 55 -79 -67 -66 -59 -76 vhcurveto
          endchar
        </CharString>
        <CharString name="emacron">
          -36 callgsubr
          263 126 132 callgsubr
          51 535 -26 178 hintmask 11101010
          96 574 -107 callgsubr
          hintmask 00010100
          -504 753 3 callgsubr
        </CharString>
        <CharString name="emdash">
          1104 553 125 hstem
          230 1942 vstem
          230 553 rmoveto
          1942 125 -1942 hlineto
          endchar
        </CharString>
        <CharString name="endash">
          366 552 126 hstem
          230 1204 vstem
          230 552 rmoveto
          1204 126 -1204 hlineto
          endchar
        </CharString>
        <CharString name="eng">
          66 -501 93 -72 -21 501 88 -88 104 933 128 hstemhm
          247 164 574 59 callgsubr
          hintmask 01101110
          109 hmoveto
          451 88 hlineto
          hintmask 10011110
          150 callgsubr
          797 vlineto
          66 86 141 70 115 hhcurveto
          201 31 -112 -235 hvcurveto
          -644 vlineto
          -228 -37 -173 -128 -36 vhcurveto
          -30 -10 -59 -10 -21 3 8 -85 rcurveline
          13 -8 80 -1 16 1 rrcurveto
          206 16 117 167 340 vvcurveto
          668 vlineto
          330 -63 145 -264 -153 -188 -97 -79 -90 vhcurveto
          1 57 rlineto
          85 vlineto
          -39 33 rlineto
          -5 hlineto
          -262 -33 rlineto
          -92 vlineto
          160 -35 rlineto
          -900 vlineto
          hintmask 01101110
          -138 -16 rlineto
          endchar
        </CharString>
        <CharString name="eogonek">
          -193 -509 114 372 117 488 96 384 106 hstem
          96 179 195 162 203 178 vstem
          470 -308 rmoveto
          -149 135 -52 132 81 84 23 41 54 vhcurveto
          86 vlineto
          -22 -43 -53 -14 -51 hhcurveto
          -92 -85 39 103 83 77 87 167 127 hvcurveto
          46 23 41 27 28 29 -33 75 rcurveline
          -54 -64 -134 96 callgsubr
          -197 118 callgsubr
          -1 8 0 9 8 vvcurveto
          729 134 callgsubr
          -142 141 -241 hhcurveto
          -301 -224 -243 -351 -350 170 -247 324 33 34 3 6 34 hvcurveto
          -132 -78 -89 -123 -93 vvcurveto
          -195 986 rmoveto
          285 18 123 99 163 hhcurveto
          182 73 -126 -167 1 hvcurveto
          -30 -2 -32 -3 -29 vhcurveto
          endchar
        </CharString>
        <CharString name="equal">
          85 callgsubr
          836 rmoveto
          917 126 -917 hlineto
          -693 vmoveto
          917 126 -917 hlineto
          endchar
        </CharString>
        <CharString name="estimated">
          95 -17 101 542 110 528 93 hstem
          113 258 668 241 vstem
          371 265 rmoveto
          361 898 vlineto
          11 51 0 69 86 vvcurveto
          -11 330 -226 200 -292 -5 rrcurveto
          -423 -7 -215 -286 -393 vvcurveto
          -402 261 -286 364 153 198 46 61 85 vhcurveto
          -41 80 rlineto
          -48 -70 -166 -38 -150 hhcurveto
          -154 -136 60 121 -86 hvcurveto
          471 vmoveto
          354 vlineto
          122 75 121 52 174 hhcurveto
          147 93 -50 -74 58 hvcurveto
          -404 vlineto
          endchar
        </CharString>
        <CharString name="eth">
          -126 -23 99 1002 90 hstem
          86 182 638 181 vstem
          86 530 rmoveto
          -317 153 -236 352 362 134 346 339 429 -217 317 -326 220 vhcurveto
          50 55 76 90 0 vvcurveto
          -76 65 rlineto
          0 -80 -97 -54 -61 vhcurveto
          -86 47 -64 31 -111 33 -35 -83 rcurveline
          61 -16 97 -47 67 -45 -152 -173 rcurveline
          82 -58 148 176 167 -108 122 -165 64 -149 rlinecurve
          23 -50 -73 22 -87 hhcurveto
          -272 -252 -214 -424 hvcurveto
          509 -454 rmoveto
          -242 -85 220 247 334 137 201 201 139 86 -66 -44 30 hvcurveto
          15 -50 30 -110 -159 vvcurveto
          -356 -92 -217 -219 vhcurveto
          endchar
        </CharString>
        <CharString name="exclam">
          -570 135 callgsubr
          hintmask 00000000
          hintmask 11000000
          301 472 115 callsubr
          hintmask 10100000
          -194 hlineto
          hintmask 11000000
          89 callgsubr
          hintmask 10100000
          102 callgsubr
          hintmask 11000000
          -66 -69 -58 -75 hvcurveto
          endchar
        </CharString>
        <CharString name="exclamdbl">
          57 135 callgsubr
          376 212 -194 233 hintmask 00000000
          hintmask 10010000
          928 472 115 callsubr
          hintmask 10001000
          -194 hlineto
          hintmask 10010000
          89 callgsubr
          hintmask 10001000
          102 callgsubr
          hintmask 10010000
          -66 -69 -58 -75 hvcurveto
          hintmask 00000000
          -562 381 115 callsubr
          hintmask 11000000
          -194 hlineto
          hintmask 10100000
          89 callgsubr
          hintmask 11000000
          102 callgsubr
          hintmask 10100000
          -66 -69 -58 -75 hvcurveto
          endchar
        </CharString>
        <CharString name="exclamdown">
          -570 1417 21 hstemhm
          241 233 -194 212 hintmask 00000000
          hintmask 10100000
          427 944 rmoveto
          -104 hlineto
          -43 -1308 rlineto
          hintmask 11000000
          194 hlineto
          hintmask 10100000
          18 1689 rmoveto
          70 -55 43 -60 vhcurveto
          hintmask 11000000
          -70 -66 -52 -81 -60 34 -53 82 hvcurveto
          hintmask 10100000
          66 69 58 75 hvcurveto
          endchar
        </CharString>
        <CharString name="f">
          -489 41 callgsubr
          405 148 hstem
          140 callsubr
          vstem
          91 hmoveto
          -106 callsubr
          endchar
        </CharString>
        <CharString name="f_f">
          320 41 callgsubr
          405 46 callgsubr
          643 166 hintmask 11110000
          91 hmoveto
          -106 callsubr
          hintmask 11101000
          809 -88 rmoveto
          -106 callsubr
          endchar
        </CharString>
        <CharString name="f_f_i">
          984 6 callgsubr
          643 166 585 106 callsubr
          hintmask 1100110000000000
          91 hmoveto
          -106 callsubr
          hintmask 1100101000000000
          809 -88 rmoveto
          -106 callsubr
          hintmask 1010000010000000
          805 -88 rmoveto
          -101 callsubr
          hintmask 0001000100000000
          229 1284 -100 callgsubr
          endchar
        </CharString>
        <CharString name="f_f_i_dflt">
          984 41 callgsubr
          26 -20 399 46 callgsubr
          643 166 639 165 hintmask 11011000
          91 hmoveto
          -106 callsubr
          hintmask 11010100
          809 -88 rmoveto
          -106 callsubr
          hintmask 10100010
          805 -88 -31 callgsubr
        </CharString>
        <CharString name="f_f_i_trk">
          984 6 callgsubr
          643 166 585 106 callsubr
          hintmask 1100110000000000
          91 hmoveto
          -106 callsubr
          hintmask 1100101000000000
          809 -88 rmoveto
          -106 callsubr
          hintmask 1010000010000000
          805 -88 rmoveto
          -101 callsubr
          hintmask 0001000100000000
          229 1284 -100 callgsubr
          endchar
        </CharString>
        <CharString name="f_f_l">
          993 41 callgsubr
          405 46 callgsubr
          643 166 633 166 hintmask 11110000
          91 hmoveto
          -106 callsubr
          hintmask 11101000
          809 -88 rmoveto
          -106 callsubr
          hintmask 10000100
          798 -88 rmoveto
          -71 callgsubr
          endchar
        </CharString>
        <CharString name="f_i_trk">
          6 callgsubr
          585 106 callsubr
          hintmask 11001100
          91 hmoveto
          -106 callsubr
          hintmask 10100001
          805 -88 rmoveto
          -101 callsubr
          hintmask 00010010
          229 1284 -100 callgsubr
          endchar
        </CharString>
        <CharString name="fi">
          6 callgsubr
          585 106 callsubr
          hintmask 11001100
          91 hmoveto
          -106 callsubr
          hintmask 10100001
          805 -88 rmoveto
          -101 callsubr
          hintmask 00010010
          229 1284 -100 callgsubr
          endchar
        </CharString>
        <CharString name="five">
          -103 -330 86 834 108 439 142 hstem
          862 187 vstem
          199 -237 rmoveto
          -1 -79 rlineto
          -11 47 51 -3 45 hhcurveto
          436 272 290 295 303 -172 140 -245 -114 -126 -33 -39 -68 hvcurveto
          97 511 rlineto
          534 hlineto
          32 181 rlineto
          -119 hlineto
          -21 -39 rlineto
          -550 hlineto
          -102 -723 46 -35 rlineto
          39 82 127 30 92 hhcurveto
          192 128 -100 -257 -287 -240 -190 -301 -37 -46 2 5 -39 hvcurveto
          endchar
        </CharString>
        <CharString name="five.numr">
          -276 529 81 456 94 270 109 hstem
          718 162 vstem
          192 549 -12 callgsubr
          endchar
        </CharString>
        <CharString name="fiveeighths">
          1120 -20 75 474 81 340 77 39 94 270 109 137 -21 hstemhm
          718 162 -114 881 -140 15 callsubr
          -38 callgsubr
          hintmask 1010000010010000
          1507 -38 callsubr
          hintmask 1010000001100000
          -37 callsubr
          hintmask 1010000010010000
          76 callsubr
          hintmask 1010000001100000
          -22 callgsubr
          hintmask 1010000010010000
          -36 -483 -37 callgsubr
          hintmask 0101101000000000
          -1466 257 -12 callgsubr
          hintmask 0000010100000000
          677 -770 -43 callgsubr
          endchar
        </CharString>
        <CharString name="fl">
          184 41 callgsubr
          405 46 callgsubr
          633 166 hintmask 11110000
          91 hmoveto
          -106 callsubr
          hintmask 10001000
          798 -88 rmoveto
          -71 callgsubr
          endchar
        </CharString>
        <CharString name="florin">
          -230 1014 121 418 132 hstem
          226 809 vstem
          318 -356 rmoveto
          162 hlineto
          117 1370 rlineto
          320 hlineto
          9 121 rlineto
          -319 hlineto
          16 138 rlineto
          224 18 89 56 122 hhcurveto
          94 51 -18 -11 19 hvcurveto
          19 144 rlineto
          7 -15 -48 10 -82 hhcurveto
          -201 -209 -166 -303 -25 hvcurveto
          -11 -81 -212 -48 -6 -73 rlineto
          207 hlineto
          endchar
        </CharString>
        <CharString name="four">
          -1 0 108 -108 136 hstemhm
          810 146 hintmask 00000000
          hintmask 10100000
          85 81 rmoveto
          44 -81 rlineto
          681 -330 147 330 303 hlineto
          hintmask 01100000
          144 vlineto
          -303 -15 rlineto
          416 vlineto
          -146 -13 rlineto
          hintmask 10100000
          -1 -410 -575 -27 78 120 573 1109 -121 67 rlineto
          -48 hlineto
          -169 -375 -271 -574 -192 -361 rrcurveto
          endchar
        </CharString>
        <CharString name="four.dnom">
          -276 116 callgsubr
          738 34 hstemhm
          620 143 hintmask 00000000
          hintmask 11011000
          113 201 rmoveto
          507 -201 143 hlineto
          hintmask 10111000
          30 callgsubr
          hintmask 11011000
          8 callsubr
          endchar
        </CharString>
        <CharString name="fraction">
          -923 1676 -21 hstem
          -256 881 vstem
          -132 -146 -43 callgsubr
          endchar
        </CharString>
        <CharString name="franc">
          16 0 98 -98 122 188 130 275 116 582 108 -96 97 hstemhm
          314 202 414 111 hintmask 00000000
          hintmask 10111010
          149 hmoveto
          625 98 hlineto
          hintmask 01111011
          -258 24 rlineto
          188 265 130 -265 279 vlineto
          377 -7 37 -180 rlineto
          111 469 -111 hlineto
          -37 -168 -377 -3 rlineto
          588 vlineto
          536 -9 60 -231 rlineto
          132 hlineto
          -21 344 rlineto
          -1084 hlineto
          hintmask 01110110
          -97 vlineto
          175 -25 rlineto
          -960 -214 -130 214 -188 vlineto
          hintmask 10111010
          -165 -24 rlineto
          endchar
        </CharString>
        <CharString name="g">
          -75 -9 callgsubr
          hstemhm
          95 25 callsubr
          514 61 callsubr
          hintmask 1110110001000000
          95 -246 -59 callsubr
          hintmask 1111000110000000
          -65 callsubr
          hintmask 1110101010000000
          -67 callsubr
          hintmask 1110100110000000
          -84 -46 -69 -93 -105 vvcurveto
          -83 35 -54 61 -33 vhcurveto
          hintmask 1110110001000000
          -89 -49 -100 -105 -133 vvcurveto
          hintmask 1110101010000000
          -64 callsubr
          hintmask 1110110001000000
          -73 callsubr
          endchar
        </CharString>
        <CharString name="gbreve">
          -82 -9 callgsubr
          196 142 hstemhm
          87 25 callsubr
          -67 95 466 93 -73 61 callsubr
          hintmask 1110101000001000
          87 -246 -59 callsubr
          hintmask 1111000010010000
          -65 callsubr
          hintmask 1110100100010000
          -67 callsubr
          hintmask 1110100010010000
          -84 -46 -69 -93 -105 vvcurveto
          -83 35 -54 61 -33 vhcurveto
          hintmask 1110101000001000
          -89 -49 -100 -105 -133 vvcurveto
          hintmask 1110100100010000
          -64 callsubr
          hintmask 1110101000001000
          -73 callsubr
          hintmask 0000010001100000
          340 1577 -94 callsubr
        </CharString>
        <CharString name="gcircumflex">
          -82 -9 callgsubr
          119 callsubr
          87 25 callsubr
          -99 715 -102 61 callsubr
          hintmask 0000001000100000
          296 1333 -39 callsubr
          hintmask 0000010000100000
          -46 callgsubr
          -38 callgsubr
          -144 -1621 -76 callsubr
        </CharString>
        <CharString name="gcommaaccent">
          -82 -9 callgsubr
          543 21 17 21 hstemhm
          87 25 callsubr
          120 141 253 174 -5 156 hintmask 0000011000100000
          674 1421 rmoveto
          44 -19 18 -21 15 vhcurveto
          -21 14 -22 18 42 vvcurveto
          63 29 63 40 21 vhcurveto
          13 vlineto
          -54 38 rlineto
          -2 hlineto
          -22 -8 -132 -100 -166 vvcurveto
          -106 50 -59 74 vhcurveto
          9 hlineto
          25 66 15 75 hvcurveto
          -38 callgsubr
          -587 -1667 -76 callsubr
        </CharString>
        <CharString name="gdotaccent">
          -82 -9 callgsubr
          204 253 hstemhm
          87 25 callsubr
          155 227 132 61 callsubr
          hintmask 1110101000010000
          87 -77 callsubr
          335 1585 -100 callgsubr
          endchar
        </CharString>
        <CharString name="germandbls">
          -23 -23 122 -99 88 -88 105 1392 107 hstemhm
          198 169 338 159 59 172 -44 177 hintmask 00000000
          hintmask 01011110
          54 hmoveto
          313 980 hlineto
          345 136 172 207 143 70 -73 -142 vhcurveto
          -192 -218 -95 -145 vvcurveto
          hintmask 10011101
          -256 346 -57 -246 vvcurveto
          -109 -71 -83 -174 -76 -73 15 21 -50 vhcurveto
          hintmask 01011101
          -135 vlineto
          hintmask 10011101
          -10 39 76 -13 57 hhcurveto
          250 199 113 240 hvcurveto
          300 -364 75 183 vvcurveto
          hintmask 00111110
          150 231 58 235 vvcurveto
          193 -159 80 -178 -292 -268 -225 -430 vhcurveto
          -844 vlineto
          hintmask 01011101
          -144 -17 rlineto
          endchar
        </CharString>
        <CharString name="grave">
          -617 1709 -21 hstem
          0 448 vstem
          388 1349 -74 callgsubr
        </CharString>
        <CharString name="grave.cap">
          -238 1667 -21 hstem
          85 454 vstem
          483 1646 12 callgsubr
        </CharString>
        <CharString name="greater">
          72 55 1123 hstem
          234 968 vstem
          1202 670 rmoveto
          -968 508 rlineto
          -155 vlineto
          819 -407 -819 -406 rlineto
          -155 vlineto
          968 507 rlineto
          endchar
        </CharString>
        <CharString name="greaterequal">
          72 173 127 hstem
          231 973 vstem
          1204 1012 rmoveto
          -973 433 rlineto
          -146 vlineto
          765 -322 -765 -325 rlineto
          -146 vlineto
          973 438 rlineto
          -644 vmoveto
          -973 -127 973 hlineto
          endchar
        </CharString>
        <CharString name="guillemotleft">
          603 116 1004 hstemhm
          243 713 20 713 hintmask 10100000
          976 544 20 callsubr
          hintmask 11000000
          -733 -136 20 callsubr
          endchar
        </CharString>
        <CharString name="guillemotright">
          599 116 1004 hstemhm
          233 713 -2 713 hintmask 10100000
          1657 680 35 callsubr
          657 428 rlineto
          -711 136 35 callsubr
          rlineto
          hintmask 11000000
          657 428 rlineto
          endchar
        </CharString>
</ttFont>
